<svg xmlns="http://www.w3.org/2000/svg" xmlns:xlink="http://www.w3.org/1999/xlink" contentStyleType="text/css" data-diagram-type="CLASS" height="648px" preserveAspectRatio="none" style="width:1454px;height:648px;background:#FFFFFF;" version="1.1" viewBox="0 0 1454 648" width="1454px" zoomAndPan="magnify"><defs/><g><!--class Event--><g id="elem_Event"><rect codeLine="2" fill="#F1F1F1" height="129.4844" id="Event" rx="2.5" ry="2.5" style="stroke:#181818;stroke-width:0.5;" width="141.5342" x="670" y="7"/><ellipse cx="716.4639" cy="23" fill="#A9DCDF" rx="11" ry="11" style="stroke:#181818;stroke-width:1;"/><path d="M716.5732,18.3438 L715.417,23.4219 L717.7451,23.4219 L716.5732,18.3438 Z M715.0889,16.1094 L718.0732,16.1094 L721.4326,28.5 L718.9795,28.5 L718.2139,25.4375 L714.9326,25.4375 L714.1826,28.5 L711.7451,28.5 L715.0889,16.1094 Z " fill="#000000"/><text fill="#000000" font-family="sans-serif" font-size="14" font-style="italic" lengthAdjust="spacing" textLength="40.1064" x="736.9639" y="27.8467">Event</text><line style="stroke:#181818;stroke-width:0.5;" x1="671" x2="810.5342" y1="39" y2="39"/><ellipse cx="681" cy="52.6484" fill="transparent" rx="3" ry="3" style="stroke:#038048;stroke-width:1;"/><text fill="#000000" font-family="sans-serif" font-size="14" lengthAdjust="spacing" textLength="72.3037" x="690" y="55.9951">id: Integer</text><ellipse cx="681" cy="68.9453" fill="transparent" rx="3" ry="3" style="stroke:#038048;stroke-width:1;"/><text fill="#000000" font-family="sans-serif" font-size="14" lengthAdjust="spacing" textLength="74.1973" x="690" y="72.292">date: Date</text><ellipse cx="681" cy="85.2422" fill="transparent" rx="3" ry="3" style="stroke:#038048;stroke-width:1;"/><text fill="#000000" font-family="sans-serif" font-size="14" lengthAdjust="spacing" textLength="115.5342" x="690" y="88.5889">start_hour: Time</text><ellipse cx="681" cy="101.5391" fill="transparent" rx="3" ry="3" style="stroke:#038048;stroke-width:1;"/><text fill="#000000" font-family="sans-serif" font-size="14" lengthAdjust="spacing" textLength="109.2998" x="690" y="104.8857">end_hour: Time</text><ellipse cx="681" cy="117.8359" fill="transparent" rx="3" ry="3" style="stroke:#038048;stroke-width:1;"/><text fill="#000000" font-family="sans-serif" font-size="14" lengthAdjust="spacing" textLength="83.4395" x="690" y="121.1826">desc: String</text><line style="stroke:#181818;stroke-width:0.5;" x1="671" x2="810.5342" y1="128.4844" y2="128.4844"/></g><!--class User--><g id="elem_User"><rect codeLine="10" fill="#F1F1F1" height="129.4844" id="User" rx="2.5" ry="2.5" style="stroke:#181818;stroke-width:0.5;" width="143.6602" x="7" y="213"/><ellipse cx="58.625" cy="229" fill="#ADD1B2" rx="11" ry="11" style="stroke:#181818;stroke-width:1;"/><path d="M61.5938,234.6406 Q61.0156,234.9375 60.375,235.0781 Q59.7344,235.2344 59.0313,235.2344 Q56.5313,235.2344 55.2031,233.5938 Q53.8906,231.9375 53.8906,228.8125 Q53.8906,225.6875 55.2031,224.0313 Q56.5313,222.375 59.0313,222.375 Q59.7344,222.375 60.375,222.5313 Q61.0313,222.6875 61.5938,222.9844 L61.5938,225.7031 Q60.9688,225.125 60.375,224.8594 Q59.7813,224.5781 59.1563,224.5781 Q57.8125,224.5781 57.125,225.6563 Q56.4375,226.7188 56.4375,228.8125 Q56.4375,230.9063 57.125,231.9844 Q57.8125,233.0469 59.1563,233.0469 Q59.7813,233.0469 60.375,232.7813 Q60.9688,232.5 61.5938,231.9219 L61.5938,234.6406 Z " fill="#000000"/><text fill="#000000" font-family="sans-serif" font-size="14" lengthAdjust="spacing" textLength="31.9102" x="79.125" y="233.8467">User</text><line style="stroke:#181818;stroke-width:0.5;" x1="8" x2="149.6602" y1="245" y2="245"/><ellipse cx="18" cy="258.6484" fill="transparent" rx="3" ry="3" style="stroke:#038048;stroke-width:1;"/><text fill="#000000" font-family="sans-serif" font-size="14" lengthAdjust="spacing" textLength="63.7246" x="27" y="261.9951">id: String</text><ellipse cx="18" cy="274.9453" fill="transparent" rx="3" ry="3" style="stroke:#038048;stroke-width:1;"/><text fill="#000000" font-family="sans-serif" font-size="14" lengthAdjust="spacing" textLength="89.5576" x="27" y="278.292">email: String</text><ellipse cx="18" cy="291.2422" fill="transparent" rx="3" ry="3" style="stroke:#038048;stroke-width:1;"/><text fill="#000000" font-family="sans-serif" font-size="14" lengthAdjust="spacing" textLength="117.6602" x="27" y="294.5889">password: String</text><ellipse cx="18" cy="307.5391" fill="transparent" rx="3" ry="3" style="stroke:#038048;stroke-width:1;"/><text fill="#000000" font-family="sans-serif" font-size="14" lengthAdjust="spacing" textLength="90.6514" x="27" y="310.8857">name: String</text><ellipse cx="18" cy="323.8359" fill="transparent" rx="3" ry="3" style="stroke:#038048;stroke-width:1;"/><text fill="#000000" font-family="sans-serif" font-size="14" lengthAdjust="spacing" textLength="109.7236" x="27" y="327.1826">admin: Boolean</text><line style="stroke:#181818;stroke-width:0.5;" x1="8" x2="149.6602" y1="334.4844" y2="334.4844"/></g><!--class InsaClass--><g id="elem_InsaClass"><rect codeLine="18" fill="#F1F1F1" height="64.2969" id="InsaClass" rx="2.5" ry="2.5" style="stroke:#181818;stroke-width:0.5;" width="98.3037" x="560" y="245.5"/><ellipse cx="575.2685" cy="261.5" fill="#ADD1B2" rx="11" ry="11" style="stroke:#181818;stroke-width:1;"/><path d="M578.2373,267.1406 Q577.6591,267.4375 577.0185,267.5781 Q576.3779,267.7344 575.6748,267.7344 Q573.1748,267.7344 571.8466,266.0938 Q570.5341,264.4375 570.5341,261.3125 Q570.5341,258.1875 571.8466,256.5313 Q573.1748,254.875 575.6748,254.875 Q576.3779,254.875 577.0185,255.0313 Q577.6748,255.1875 578.2373,255.4844 L578.2373,258.2031 Q577.6123,257.625 577.0185,257.3594 Q576.4248,257.0781 575.7998,257.0781 Q574.456,257.0781 573.7685,258.1563 Q573.081,259.2188 573.081,261.3125 Q573.081,263.4063 573.7685,264.4844 Q574.456,265.5469 575.7998,265.5469 Q576.4248,265.5469 577.0185,265.2813 Q577.6123,265 578.2373,264.4219 L578.2373,267.1406 Z " fill="#000000"/><text fill="#000000" font-family="sans-serif" font-size="14" lengthAdjust="spacing" textLength="65.707" x="589.3282" y="266.3467">InsaClass</text><line style="stroke:#181818;stroke-width:0.5;" x1="561" x2="657.3037" y1="277.5" y2="277.5"/><ellipse cx="571" cy="291.1484" fill="transparent" rx="3" ry="3" style="stroke:#038048;stroke-width:1;"/><text fill="#000000" font-family="sans-serif" font-size="14" lengthAdjust="spacing" textLength="72.3037" x="580" y="294.4951">id: Integer</text><line style="stroke:#181818;stroke-width:0.5;" x1="561" x2="657.3037" y1="301.7969" y2="301.7969"/></g><!--class InsaEvenement--><g id="elem_InsaEvenement"><rect codeLine="22" fill="#F1F1F1" height="96.8906" id="InsaEvenement" rx="2.5" ry="2.5" style="stroke:#181818;stroke-width:0.5;" width="183.5957" x="710" y="229"/><ellipse cx="744.2946" cy="245" fill="#ADD1B2" rx="11" ry="11" style="stroke:#181818;stroke-width:1;"/><path d="M747.2634,250.6406 Q746.6853,250.9375 746.0446,251.0781 Q745.404,251.2344 744.7009,251.2344 Q742.2009,251.2344 740.8728,249.5938 Q739.5603,247.9375 739.5603,244.8125 Q739.5603,241.6875 740.8728,240.0313 Q742.2009,238.375 744.7009,238.375 Q745.404,238.375 746.0446,238.5313 Q746.7009,238.6875 747.2634,238.9844 L747.2634,241.7031 Q746.6384,241.125 746.0446,240.8594 Q745.4509,240.5781 744.8259,240.5781 Q743.4821,240.5781 742.7946,241.6563 Q742.1071,242.7188 742.1071,244.8125 Q742.1071,246.9063 742.7946,247.9844 Q743.4821,249.0469 744.8259,249.0469 Q745.4509,249.0469 746.0446,248.7813 Q746.6384,248.5 747.2634,247.9219 L747.2634,250.6406 Z " fill="#000000"/><text fill="#000000" font-family="sans-serif" font-size="14" lengthAdjust="spacing" textLength="108.7188" x="762.5823" y="249.8467">InsaEvenement</text><line style="stroke:#181818;stroke-width:0.5;" x1="711" x2="892.5957" y1="261" y2="261"/><ellipse cx="721" cy="274.6484" fill="transparent" rx="3" ry="3" style="stroke:#038048;stroke-width:1;"/><text fill="#000000" font-family="sans-serif" font-size="14" lengthAdjust="spacing" textLength="72.3037" x="730" y="277.9951">id: Integer</text><ellipse cx="721" cy="290.9453" fill="transparent" rx="3" ry="3" style="stroke:#038048;stroke-width:1;"/><text fill="#000000" font-family="sans-serif" font-size="14" lengthAdjust="spacing" textLength="157.5957" x="730" y="294.292">associated_link: String</text><ellipse cx="721" cy="307.2422" fill="transparent" rx="3" ry="3" style="stroke:#038048;stroke-width:1;"/><text fill="#000000" font-family="sans-serif" font-size="14" lengthAdjust="spacing" textLength="149.4404" x="730" y="310.5889">association_id: String</text><line style="stroke:#181818;stroke-width:0.5;" x1="711" x2="892.5957" y1="317.8906" y2="317.8906"/></g><!--class Association--><g id="elem_Association"><rect codeLine="28" fill="#F1F1F1" height="129.4844" id="Association" rx="2.5" ry="2.5" style="stroke:#181818;stroke-width:0.5;" width="166.4307" x="1053" y="7"/><ellipse cx="1092.6226" cy="23" fill="#ADD1B2" rx="11" ry="11" style="stroke:#181818;stroke-width:1;"/><path d="M1095.5913,28.6406 Q1095.0132,28.9375 1094.3726,29.0781 Q1093.7319,29.2344 1093.0288,29.2344 Q1090.5288,29.2344 1089.2007,27.5938 Q1087.8882,25.9375 1087.8882,22.8125 Q1087.8882,19.6875 1089.2007,18.0313 Q1090.5288,16.375 1093.0288,16.375 Q1093.7319,16.375 1094.3726,16.5313 Q1095.0288,16.6875 1095.5913,16.9844 L1095.5913,19.7031 Q1094.9663,19.125 1094.3726,18.8594 Q1093.7788,18.5781 1093.1538,18.5781 Q1091.8101,18.5781 1091.1226,19.6563 Q1090.4351,20.7188 1090.4351,22.8125 Q1090.4351,24.9063 1091.1226,25.9844 Q1091.8101,27.0469 1093.1538,27.0469 Q1093.7788,27.0469 1094.3726,26.7813 Q1094.9663,26.5 1095.5913,25.9219 L1095.5913,28.6406 Z " fill="#000000"/><text fill="#000000" font-family="sans-serif" font-size="14" lengthAdjust="spacing" textLength="79.7139" x="1112.0942" y="27.8467">Association</text><line style="stroke:#181818;stroke-width:0.5;" x1="1054" x2="1218.4307" y1="39" y2="39"/><ellipse cx="1064" cy="52.6484" fill="transparent" rx="3" ry="3" style="stroke:#038048;stroke-width:1;"/><text fill="#000000" font-family="sans-serif" font-size="14" lengthAdjust="spacing" textLength="90.6514" x="1073" y="55.9951">name: String</text><ellipse cx="1064" cy="68.9453" fill="transparent" rx="3" ry="3" style="stroke:#038048;stroke-width:1;"/><text fill="#000000" font-family="sans-serif" font-size="14" lengthAdjust="spacing" textLength="127.0938" x="1073" y="72.292">user_email: String</text><ellipse cx="1064" cy="85.2422" fill="transparent" rx="3" ry="3" style="stroke:#038048;stroke-width:1;"/><text fill="#000000" font-family="sans-serif" font-size="14" lengthAdjust="spacing" textLength="140.4307" x="1073" y="88.5889">unique_color: String</text><ellipse cx="1064" cy="101.5391" fill="transparent" rx="3" ry="3" style="stroke:#038048;stroke-width:1;"/><text fill="#000000" font-family="sans-serif" font-size="14" lengthAdjust="spacing" textLength="82.2227" x="1073" y="104.8857">type: String</text><ellipse cx="1064" cy="117.8359" fill="transparent" rx="3" ry="3" style="stroke:#038048;stroke-width:1;"/><text fill="#000000" font-family="sans-serif" font-size="14" lengthAdjust="spacing" textLength="94.3633" x="1073" y="121.1826">sector: String</text><line style="stroke:#181818;stroke-width:0.5;" x1="1054" x2="1218.4307" y1="128.4844" y2="128.4844"/></g><!--class EnumType--><g id="elem_EnumType"><rect codeLine="36" fill="#F1F1F1" height="64.2969" id="EnumType" rx="2.5" ry="2.5" style="stroke:#181818;stroke-width:0.5;" width="116.6514" x="1178.5" y="245.5"/><ellipse cx="1198.0382" cy="261.5" fill="#ADD1B2" rx="11" ry="11" style="stroke:#181818;stroke-width:1;"/><path d="M1201.007,267.1406 Q1200.4289,267.4375 1199.7882,267.5781 Q1199.1476,267.7344 1198.4445,267.7344 Q1195.9445,267.7344 1194.6164,266.0938 Q1193.3039,264.4375 1193.3039,261.3125 Q1193.3039,258.1875 1194.6164,256.5313 Q1195.9445,254.875 1198.4445,254.875 Q1199.1476,254.875 1199.7882,255.0313 Q1200.4445,255.1875 1201.007,255.4844 L1201.007,258.2031 Q1200.382,257.625 1199.7882,257.3594 Q1199.1945,257.0781 1198.5695,257.0781 Q1197.2257,257.0781 1196.5382,258.1563 Q1195.8507,259.2188 1195.8507,261.3125 Q1195.8507,263.4063 1196.5382,264.4844 Q1197.2257,265.5469 1198.5695,265.5469 Q1199.1945,265.5469 1199.7882,265.2813 Q1200.382,265 1201.007,264.4219 L1201.007,267.1406 Z " fill="#000000"/><text fill="#000000" font-family="sans-serif" font-size="14" lengthAdjust="spacing" textLength="74.5664" x="1213.0467" y="266.3467">EnumType</text><line style="stroke:#181818;stroke-width:0.5;" x1="1179.5" x2="1294.1514" y1="277.5" y2="277.5"/><ellipse cx="1189.5" cy="291.1484" fill="transparent" rx="3" ry="3" style="stroke:#038048;stroke-width:1;"/><text fill="#000000" font-family="sans-serif" font-size="14" lengthAdjust="spacing" textLength="90.6514" x="1198.5" y="294.4951">name: String</text><line style="stroke:#181818;stroke-width:0.5;" x1="1179.5" x2="1294.1514" y1="301.7969" y2="301.7969"/></g><!--class EnumSector--><g id="elem_EnumSector"><rect codeLine="40" fill="#F1F1F1" height="64.2969" id="EnumSector" rx="2.5" ry="2.5" style="stroke:#181818;stroke-width:0.5;" width="117.2373" x="1330.5" y="245.5"/><ellipse cx="1345.5" cy="261.5" fill="#ADD1B2" rx="11" ry="11" style="stroke:#181818;stroke-width:1;"/><path d="M1348.4688,267.1406 Q1347.8906,267.4375 1347.25,267.5781 Q1346.6094,267.7344 1345.9063,267.7344 Q1343.4063,267.7344 1342.0781,266.0938 Q1340.7656,264.4375 1340.7656,261.3125 Q1340.7656,258.1875 1342.0781,256.5313 Q1343.4063,254.875 1345.9063,254.875 Q1346.6094,254.875 1347.25,255.0313 Q1347.9063,255.1875 1348.4688,255.4844 L1348.4688,258.2031 Q1347.8438,257.625 1347.25,257.3594 Q1346.6563,257.0781 1346.0313,257.0781 Q1344.6875,257.0781 1344,258.1563 Q1343.3125,259.2188 1343.3125,261.3125 Q1343.3125,263.4063 1344,264.4844 Q1344.6875,265.5469 1346.0313,265.5469 Q1346.6563,265.5469 1347.25,265.2813 Q1347.8438,265 1348.4688,264.4219 L1348.4688,267.1406 Z " fill="#000000"/><text fill="#000000" font-family="sans-serif" font-size="14" lengthAdjust="spacing" textLength="85.2373" x="1359.5" y="266.3467">EnumSector</text><line style="stroke:#181818;stroke-width:0.5;" x1="1331.5" x2="1446.7373" y1="277.5" y2="277.5"/><ellipse cx="1341.5" cy="291.1484" fill="transparent" rx="3" ry="3" style="stroke:#038048;stroke-width:1;"/><text fill="#000000" font-family="sans-serif" font-size="14" lengthAdjust="spacing" textLength="90.6514" x="1350.5" y="294.4951">name: String</text><line style="stroke:#181818;stroke-width:0.5;" x1="1331.5" x2="1446.7373" y1="301.7969" y2="301.7969"/></g><!--class EnumColor--><g id="elem_EnumColor"><rect codeLine="44" fill="#F1F1F1" height="80.5938" id="EnumColor" rx="2.5" ry="2.5" style="stroke:#181818;stroke-width:0.5;" width="214.3096" x="929" y="237"/><ellipse cx="993.5142" cy="253" fill="#ADD1B2" rx="11" ry="11" style="stroke:#181818;stroke-width:1;"/><path d="M996.4829,258.6406 Q995.9048,258.9375 995.2642,259.0781 Q994.6235,259.2344 993.9204,259.2344 Q991.4204,259.2344 990.0923,257.5938 Q988.7798,255.9375 988.7798,252.8125 Q988.7798,249.6875 990.0923,248.0313 Q991.4204,246.375 993.9204,246.375 Q994.6235,246.375 995.2642,246.5313 Q995.9204,246.6875 996.4829,246.9844 L996.4829,249.7031 Q995.8579,249.125 995.2642,248.8594 Q994.6704,248.5781 994.0454,248.5781 Q992.7017,248.5781 992.0142,249.6563 Q991.3267,250.7188 991.3267,252.8125 Q991.3267,254.9063 992.0142,255.9844 Q992.7017,257.0469 994.0454,257.0469 Q994.6704,257.0469 995.2642,256.7813 Q995.8579,256.5 996.4829,255.9219 L996.4829,258.6406 Z " fill="#000000"/><text fill="#000000" font-family="sans-serif" font-size="14" lengthAdjust="spacing" textLength="76.7813" x="1014.0142" y="257.8467">EnumColor</text><line style="stroke:#181818;stroke-width:0.5;" x1="930" x2="1142.3096" y1="269" y2="269"/><ellipse cx="940" cy="282.6484" fill="transparent" rx="3" ry="3" style="stroke:#038048;stroke-width:1;"/><text fill="#000000" font-family="sans-serif" font-size="14" lengthAdjust="spacing" textLength="89.1885" x="949" y="285.9951">value: String</text><ellipse cx="940" cy="298.9453" fill="transparent" rx="3" ry="3" style="stroke:#038048;stroke-width:1;"/><text fill="#000000" font-family="sans-serif" font-size="14" lengthAdjust="spacing" textLength="188.3096" x="949" y="302.292">user_friendly_name: String</text><line style="stroke:#181818;stroke-width:0.5;" x1="930" x2="1142.3096" y1="309.5938" y2="309.5938"/></g><!--class GroupTD--><g id="elem_GroupTD"><rect codeLine="49" fill="#F1F1F1" height="64.2969" id="GroupTD" rx="2.5" ry="2.5" style="stroke:#181818;stroke-width:0.5;" width="116.6514" x="39.5" y="577"/><ellipse cx="64.5753" cy="593" fill="#ADD1B2" rx="11" ry="11" style="stroke:#181818;stroke-width:1;"/><path d="M67.5441,598.6406 Q66.966,598.9375 66.3253,599.0781 Q65.6847,599.2344 64.9816,599.2344 Q62.4816,599.2344 61.1535,597.5938 Q59.841,595.9375 59.841,592.8125 Q59.841,589.6875 61.1535,588.0313 Q62.4816,586.375 64.9816,586.375 Q65.6847,586.375 66.3253,586.5313 Q66.9816,586.6875 67.5441,586.9844 L67.5441,589.7031 Q66.9191,589.125 66.3253,588.8594 Q65.7316,588.5781 65.1066,588.5781 Q63.7628,588.5781 63.0753,589.6563 Q62.3878,590.7188 62.3878,592.8125 Q62.3878,594.9063 63.0753,595.9844 Q63.7628,597.0469 65.1066,597.0469 Q65.7316,597.0469 66.3253,596.7813 Q66.9191,596.5 67.5441,595.9219 L67.5441,598.6406 Z " fill="#000000"/><text fill="#000000" font-family="sans-serif" font-size="14" lengthAdjust="spacing" textLength="62.2617" x="80.8143" y="597.8467">GroupTD</text><line style="stroke:#181818;stroke-width:0.5;" x1="40.5" x2="155.1514" y1="609" y2="609"/><ellipse cx="50.5" cy="622.6484" fill="transparent" rx="3" ry="3" style="stroke:#038048;stroke-width:1;"/><text fill="#000000" font-family="sans-serif" font-size="14" lengthAdjust="spacing" textLength="90.6514" x="59.5" y="625.9951">name: String</text><line style="stroke:#181818;stroke-width:0.5;" x1="40.5" x2="155.1514" y1="633.2969" y2="633.2969"/></g><!--class Department--><g id="elem_Department"><rect codeLine="53" fill="#F1F1F1" height="64.2969" id="Department" rx="2.5" ry="2.5" style="stroke:#181818;stroke-width:0.5;" width="116.7178" x="197.5" y="577"/><ellipse cx="212.5" cy="593" fill="#ADD1B2" rx="11" ry="11" style="stroke:#181818;stroke-width:1;"/><path d="M215.4688,598.6406 Q214.8906,598.9375 214.25,599.0781 Q213.6094,599.2344 212.9063,599.2344 Q210.4063,599.2344 209.0781,597.5938 Q207.7656,595.9375 207.7656,592.8125 Q207.7656,589.6875 209.0781,588.0313 Q210.4063,586.375 212.9063,586.375 Q213.6094,586.375 214.25,586.5313 Q214.9063,586.6875 215.4688,586.9844 L215.4688,589.7031 Q214.8438,589.125 214.25,588.8594 Q213.6563,588.5781 213.0313,588.5781 Q211.6875,588.5781 211,589.6563 Q210.3125,590.7188 210.3125,592.8125 Q210.3125,594.9063 211,595.9844 Q211.6875,597.0469 213.0313,597.0469 Q213.6563,597.0469 214.25,596.7813 Q214.8438,596.5 215.4688,595.9219 L215.4688,598.6406 Z " fill="#000000"/><text fill="#000000" font-family="sans-serif" font-size="14" lengthAdjust="spacing" textLength="84.7178" x="226.5" y="597.8467">Department</text><line style="stroke:#181818;stroke-width:0.5;" x1="198.5" x2="313.2178" y1="609" y2="609"/><ellipse cx="208.5" cy="622.6484" fill="transparent" rx="3" ry="3" style="stroke:#038048;stroke-width:1;"/><text fill="#000000" font-family="sans-serif" font-size="14" lengthAdjust="spacing" textLength="90.6514" x="217.5" y="625.9951">name: String</text><line style="stroke:#181818;stroke-width:0.5;" x1="198.5" x2="313.2178" y1="633.2969" y2="633.2969"/></g><!--class Teacher--><g id="elem_Teacher"><rect codeLine="57" fill="#F1F1F1" height="64.2969" id="Teacher" rx="2.5" ry="2.5" style="stroke:#181818;stroke-width:0.5;" width="116.6514" x="732.5" y="577"/><ellipse cx="760.0855" cy="593" fill="#ADD1B2" rx="11" ry="11" style="stroke:#181818;stroke-width:1;"/><path d="M763.0542,598.6406 Q762.4761,598.9375 761.8355,599.0781 Q761.1949,599.2344 760.4917,599.2344 Q757.9917,599.2344 756.6636,597.5938 Q755.3511,595.9375 755.3511,592.8125 Q755.3511,589.6875 756.6636,588.0313 Q757.9917,586.375 760.4917,586.375 Q761.1949,586.375 761.8355,586.5313 Q762.4917,586.6875 763.0542,586.9844 L763.0542,589.7031 Q762.4292,589.125 761.8355,588.8594 Q761.2417,588.5781 760.6167,588.5781 Q759.273,588.5781 758.5855,589.6563 Q757.898,590.7188 757.898,592.8125 Q757.898,594.9063 758.5855,595.9844 Q759.273,597.0469 760.6167,597.0469 Q761.2417,597.0469 761.8355,596.7813 Q762.4292,596.5 763.0542,595.9219 L763.0542,598.6406 Z " fill="#000000"/><text fill="#000000" font-family="sans-serif" font-size="14" lengthAdjust="spacing" textLength="56.6836" x="776.8823" y="597.8467">Teacher</text><line style="stroke:#181818;stroke-width:0.5;" x1="733.5" x2="848.1514" y1="609" y2="609"/><ellipse cx="743.5" cy="622.6484" fill="transparent" rx="3" ry="3" style="stroke:#038048;stroke-width:1;"/><text fill="#000000" font-family="sans-serif" font-size="14" lengthAdjust="spacing" textLength="90.6514" x="752.5" y="625.9951">name: String</text><line style="stroke:#181818;stroke-width:0.5;" x1="733.5" x2="848.1514" y1="633.2969" y2="633.2969"/></g><!--class Room--><g id="elem_Room"><rect codeLine="61" fill="#F1F1F1" height="64.2969" id="Room" rx="2.5" ry="2.5" style="stroke:#181818;stroke-width:0.5;" width="116.6514" x="550.5" y="577"/><ellipse cx="585.3699" cy="593" fill="#ADD1B2" rx="11" ry="11" style="stroke:#181818;stroke-width:1;"/><path d="M588.3386,598.6406 Q587.7605,598.9375 587.1199,599.0781 Q586.4792,599.2344 585.7761,599.2344 Q583.2761,599.2344 581.948,597.5938 Q580.6355,595.9375 580.6355,592.8125 Q580.6355,589.6875 581.948,588.0313 Q583.2761,586.375 585.7761,586.375 Q586.4792,586.375 587.1199,586.5313 Q587.7761,586.6875 588.3386,586.9844 L588.3386,589.7031 Q587.7136,589.125 587.1199,588.8594 Q586.5261,588.5781 585.9011,588.5781 Q584.5574,588.5781 583.8699,589.6563 Q583.1824,590.7188 583.1824,592.8125 Q583.1824,594.9063 583.8699,595.9844 Q584.5574,597.0469 585.9011,597.0469 Q586.5261,597.0469 587.1199,596.7813 Q587.7136,596.5 588.3386,595.9219 L588.3386,598.6406 Z " fill="#000000"/><text fill="#000000" font-family="sans-serif" font-size="14" lengthAdjust="spacing" textLength="40.4961" x="603.7854" y="597.8467">Room</text><line style="stroke:#181818;stroke-width:0.5;" x1="551.5" x2="666.1514" y1="609" y2="609"/><ellipse cx="561.5" cy="622.6484" fill="transparent" rx="3" ry="3" style="stroke:#038048;stroke-width:1;"/><text fill="#000000" font-family="sans-serif" font-size="14" lengthAdjust="spacing" textLength="90.6514" x="570.5" y="625.9951">name: String</text><line style="stroke:#181818;stroke-width:0.5;" x1="551.5" x2="666.1514" y1="633.2969" y2="633.2969"/></g><!--class EvenementRoom--><g id="elem_EvenementRoom"><rect codeLine="65" fill="#F1F1F1" height="64.2969" id="EvenementRoom" rx="2.5" ry="2.5" style="stroke:#181818;stroke-width:0.5;" width="152.3398" x="938" y="577"/><ellipse cx="953" cy="593" fill="#ADD1B2" rx="11" ry="11" style="stroke:#181818;stroke-width:1;"/><path d="M955.9688,598.6406 Q955.3906,598.9375 954.75,599.0781 Q954.1094,599.2344 953.4063,599.2344 Q950.9063,599.2344 949.5781,597.5938 Q948.2656,595.9375 948.2656,592.8125 Q948.2656,589.6875 949.5781,588.0313 Q950.9063,586.375 953.4063,586.375 Q954.1094,586.375 954.75,586.5313 Q955.4063,586.6875 955.9688,586.9844 L955.9688,589.7031 Q955.3438,589.125 954.75,588.8594 Q954.1563,588.5781 953.5313,588.5781 Q952.1875,588.5781 951.5,589.6563 Q950.8125,590.7188 950.8125,592.8125 Q950.8125,594.9063 951.5,595.9844 Q952.1875,597.0469 953.5313,597.0469 Q954.1563,597.0469 954.75,596.7813 Q955.3438,596.5 955.9688,595.9219 L955.9688,598.6406 Z " fill="#000000"/><text fill="#000000" font-family="sans-serif" font-size="14" lengthAdjust="spacing" textLength="120.3398" x="967" y="597.8467">EvenementRoom</text><line style="stroke:#181818;stroke-width:0.5;" x1="939" x2="1089.3398" y1="609" y2="609"/><ellipse cx="949" cy="622.6484" fill="transparent" rx="3" ry="3" style="stroke:#038048;stroke-width:1;"/><text fill="#000000" font-family="sans-serif" font-size="14" lengthAdjust="spacing" textLength="90.6514" x="958" y="625.9951">name: String</text><line style="stroke:#181818;stroke-width:0.5;" x1="939" x2="1089.3398" y1="633.2969" y2="633.2969"/></g><!--class EvenementLinkEventRoom--><g id="elem_EvenementLinkEventRoom"><rect codeLine="69" fill="#F1F1F1" height="80.5938" id="EvenementLinkEventRoom" rx="2.5" ry="2.5" style="stroke:#181818;stroke-width:0.5;" width="221.1162" x="903.5" y="419"/><ellipse cx="918.5" cy="435" fill="#ADD1B2" rx="11" ry="11" style="stroke:#181818;stroke-width:1;"/><path d="M921.4688,440.6406 Q920.8906,440.9375 920.25,441.0781 Q919.6094,441.2344 918.9063,441.2344 Q916.4063,441.2344 915.0781,439.5938 Q913.7656,437.9375 913.7656,434.8125 Q913.7656,431.6875 915.0781,430.0313 Q916.4063,428.375 918.9063,428.375 Q919.6094,428.375 920.25,428.5313 Q920.9063,428.6875 921.4688,428.9844 L921.4688,431.7031 Q920.8438,431.125 920.25,430.8594 Q919.6563,430.5781 919.0313,430.5781 Q917.6875,430.5781 917,431.6563 Q916.3125,432.7188 916.3125,434.8125 Q916.3125,436.9063 917,437.9844 Q917.6875,439.0469 919.0313,439.0469 Q919.6563,439.0469 920.25,438.7813 Q920.8438,438.5 921.4688,437.9219 L921.4688,440.6406 Z " fill="#000000"/><text fill="#000000" font-family="sans-serif" font-size="14" lengthAdjust="spacing" textLength="189.1162" x="932.5" y="439.8467">EvenementLinkEventRoom</text><line style="stroke:#181818;stroke-width:0.5;" x1="904.5" x2="1123.6162" y1="451" y2="451"/><ellipse cx="914.5" cy="464.6484" fill="transparent" rx="3" ry="3" style="stroke:#038048;stroke-width:1;"/><text fill="#000000" font-family="sans-serif" font-size="14" lengthAdjust="spacing" textLength="158.915" x="923.5" y="467.9951">evenement_id: Integer</text><ellipse cx="914.5" cy="480.9453" fill="transparent" rx="3" ry="3" style="stroke:#038048;stroke-width:1;"/><text fill="#000000" font-family="sans-serif" font-size="14" lengthAdjust="spacing" textLength="107.249" x="923.5" y="484.292">room_id: String</text><line style="stroke:#181818;stroke-width:0.5;" x1="904.5" x2="1123.6162" y1="491.5938" y2="491.5938"/></g><!--class ClassLinkTD--><g id="elem_ClassLinkTD"><rect codeLine="74" fill="#F1F1F1" height="80.5938" id="ClassLinkTD" rx="2.5" ry="2.5" style="stroke:#181818;stroke-width:0.5;" width="140.0576" x="364" y="419"/><ellipse cx="389.4506" cy="435" fill="#ADD1B2" rx="11" ry="11" style="stroke:#181818;stroke-width:1;"/><path d="M392.4194,440.6406 Q391.8413,440.9375 391.2006,441.0781 Q390.56,441.2344 389.8569,441.2344 Q387.3569,441.2344 386.0288,439.5938 Q384.7163,437.9375 384.7163,434.8125 Q384.7163,431.6875 386.0288,430.0313 Q387.3569,428.375 389.8569,428.375 Q390.56,428.375 391.2006,428.5313 Q391.8569,428.6875 392.4194,428.9844 L392.4194,431.7031 Q391.7944,431.125 391.2006,430.8594 Q390.6069,430.5781 389.9819,430.5781 Q388.6381,430.5781 387.9506,431.6563 Q387.2631,432.7188 387.2631,434.8125 Q387.2631,436.9063 387.9506,437.9844 Q388.6381,439.0469 389.9819,439.0469 Q390.6069,439.0469 391.2006,438.7813 Q391.7944,438.5 392.4194,437.9219 L392.4194,440.6406 Z " fill="#000000"/><text fill="#000000" font-family="sans-serif" font-size="14" lengthAdjust="spacing" textLength="84.834" x="405.773" y="439.8467">ClassLinkTD</text><line style="stroke:#181818;stroke-width:0.5;" x1="365" x2="503.0576" y1="451" y2="451"/><ellipse cx="375" cy="464.6484" fill="transparent" rx="3" ry="3" style="stroke:#038048;stroke-width:1;"/><text fill="#000000" font-family="sans-serif" font-size="14" lengthAdjust="spacing" textLength="114.0576" x="384" y="467.9951">class_id: Integer</text><ellipse cx="375" cy="480.9453" fill="transparent" rx="3" ry="3" style="stroke:#038048;stroke-width:1;"/><text fill="#000000" font-family="sans-serif" font-size="14" lengthAdjust="spacing" textLength="85.1006" x="384" y="484.292">td_id: String</text><line style="stroke:#181818;stroke-width:0.5;" x1="365" x2="503.0576" y1="491.5938" y2="491.5938"/></g><!--class ClassLinkRoom--><g id="elem_ClassLinkRoom"><rect codeLine="79" fill="#F1F1F1" height="80.5938" id="ClassLinkRoom" rx="2.5" ry="2.5" style="stroke:#181818;stroke-width:0.5;" width="140.0576" x="539" y="419"/><ellipse cx="554.9268" cy="435" fill="#ADD1B2" rx="11" ry="11" style="stroke:#181818;stroke-width:1;"/><path d="M557.8956,440.6406 Q557.3174,440.9375 556.6768,441.0781 Q556.0362,441.2344 555.3331,441.2344 Q552.8331,441.2344 551.5049,439.5938 Q550.1924,437.9375 550.1924,434.8125 Q550.1924,431.6875 551.5049,430.0313 Q552.8331,428.375 555.3331,428.375 Q556.0362,428.375 556.6768,428.5313 Q557.3331,428.6875 557.8956,428.9844 L557.8956,431.7031 Q557.2706,431.125 556.6768,430.8594 Q556.0831,430.5781 555.4581,430.5781 Q554.1143,430.5781 553.4268,431.6563 Q552.7393,432.7188 552.7393,434.8125 Q552.7393,436.9063 553.4268,437.9844 Q554.1143,439.0469 555.4581,439.0469 Q556.0831,439.0469 556.6768,438.7813 Q557.2706,438.5 557.8956,437.9219 L557.8956,440.6406 Z " fill="#000000"/><text fill="#000000" font-family="sans-serif" font-size="14" lengthAdjust="spacing" textLength="105.998" x="569.1328" y="439.8467">ClassLinkRoom</text><line style="stroke:#181818;stroke-width:0.5;" x1="540" x2="678.0576" y1="451" y2="451"/><ellipse cx="550" cy="464.6484" fill="transparent" rx="3" ry="3" style="stroke:#038048;stroke-width:1;"/><text fill="#000000" font-family="sans-serif" font-size="14" lengthAdjust="spacing" textLength="114.0576" x="559" y="467.9951">class_id: Integer</text><ellipse cx="550" cy="480.9453" fill="transparent" rx="3" ry="3" style="stroke:#038048;stroke-width:1;"/><text fill="#000000" font-family="sans-serif" font-size="14" lengthAdjust="spacing" textLength="107.249" x="559" y="484.292">room_id: String</text><line style="stroke:#181818;stroke-width:0.5;" x1="540" x2="678.0576" y1="491.5938" y2="491.5938"/></g><!--class ClassLinkTeacher--><g id="elem_ClassLinkTeacher"><rect codeLine="84" fill="#F1F1F1" height="80.5938" id="ClassLinkTeacher" rx="2.5" ry="2.5" style="stroke:#181818;stroke-width:0.5;" width="154.1855" x="714" y="419"/><ellipse cx="729" cy="435" fill="#ADD1B2" rx="11" ry="11" style="stroke:#181818;stroke-width:1;"/><path d="M731.9688,440.6406 Q731.3906,440.9375 730.75,441.0781 Q730.1094,441.2344 729.4063,441.2344 Q726.9063,441.2344 725.5781,439.5938 Q724.2656,437.9375 724.2656,434.8125 Q724.2656,431.6875 725.5781,430.0313 Q726.9063,428.375 729.4063,428.375 Q730.1094,428.375 730.75,428.5313 Q731.4063,428.6875 731.9688,428.9844 L731.9688,431.7031 Q731.3438,431.125 730.75,430.8594 Q730.1563,430.5781 729.5313,430.5781 Q728.1875,430.5781 727.5,431.6563 Q726.8125,432.7188 726.8125,434.8125 Q726.8125,436.9063 727.5,437.9844 Q728.1875,439.0469 729.5313,439.0469 Q730.1563,439.0469 730.75,438.7813 Q731.3438,438.5 731.9688,437.9219 L731.9688,440.6406 Z " fill="#000000"/><text fill="#000000" font-family="sans-serif" font-size="14" lengthAdjust="spacing" textLength="122.1855" x="743" y="439.8467">ClassLinkTeacher</text><line style="stroke:#181818;stroke-width:0.5;" x1="715" x2="867.1855" y1="451" y2="451"/><ellipse cx="725" cy="464.6484" fill="transparent" rx="3" ry="3" style="stroke:#038048;stroke-width:1;"/><text fill="#000000" font-family="sans-serif" font-size="14" lengthAdjust="spacing" textLength="114.0576" x="734" y="467.9951">class_id: Integer</text><ellipse cx="725" cy="480.9453" fill="transparent" rx="3" ry="3" style="stroke:#038048;stroke-width:1;"/><text fill="#000000" font-family="sans-serif" font-size="14" lengthAdjust="spacing" textLength="124.3457" x="734" y="484.292">teacher_id: String</text><line style="stroke:#181818;stroke-width:0.5;" x1="715" x2="867.1855" y1="491.5938" y2="491.5938"/></g><!--class ClassLinkDepart--><g id="elem_ClassLinkDepart"><rect codeLine="89" fill="#F1F1F1" height="80.5938" id="ClassLinkDepart" rx="2.5" ry="2.5" style="stroke:#181818;stroke-width:0.5;" width="145.6064" x="183" y="419"/><ellipse cx="198" cy="435" fill="#ADD1B2" rx="11" ry="11" style="stroke:#181818;stroke-width:1;"/><path d="M200.9688,440.6406 Q200.3906,440.9375 199.75,441.0781 Q199.1094,441.2344 198.4063,441.2344 Q195.9063,441.2344 194.5781,439.5938 Q193.2656,437.9375 193.2656,434.8125 Q193.2656,431.6875 194.5781,430.0313 Q195.9063,428.375 198.4063,428.375 Q199.1094,428.375 199.75,428.5313 Q200.4063,428.6875 200.9688,428.9844 L200.9688,431.7031 Q200.3438,431.125 199.75,430.8594 Q199.1563,430.5781 198.5313,430.5781 Q197.1875,430.5781 196.5,431.6563 Q195.8125,432.7188 195.8125,434.8125 Q195.8125,436.9063 196.5,437.9844 Q197.1875,439.0469 198.5313,439.0469 Q199.1563,439.0469 199.75,438.7813 Q200.3438,438.5 200.9688,437.9219 L200.9688,440.6406 Z " fill="#000000"/><text fill="#000000" font-family="sans-serif" font-size="14" lengthAdjust="spacing" textLength="113.6064" x="212" y="439.8467">ClassLinkDepart</text><line style="stroke:#181818;stroke-width:0.5;" x1="184" x2="327.6064" y1="451" y2="451"/><ellipse cx="194" cy="464.6484" fill="transparent" rx="3" ry="3" style="stroke:#038048;stroke-width:1;"/><text fill="#000000" font-family="sans-serif" font-size="14" lengthAdjust="spacing" textLength="114.0576" x="203" y="467.9951">class_id: Integer</text><ellipse cx="194" cy="480.9453" fill="transparent" rx="3" ry="3" style="stroke:#038048;stroke-width:1;"/><text fill="#000000" font-family="sans-serif" font-size="14" lengthAdjust="spacing" textLength="116.9355" x="203" y="484.292">depart_id: String</text><line style="stroke:#181818;stroke-width:0.5;" x1="184" x2="327.6064" y1="491.5938" y2="491.5938"/></g><!--class UserLinkTD--><g id="elem_UserLinkTD"><rect codeLine="94" fill="#F1F1F1" height="80.5938" id="UserLinkTD" rx="2.5" ry="2.5" style="stroke:#181818;stroke-width:0.5;" width="138.0273" x="10" y="419"/><ellipse cx="36.7519" cy="435" fill="#ADD1B2" rx="11" ry="11" style="stroke:#181818;stroke-width:1;"/><path d="M39.7206,440.6406 Q39.1425,440.9375 38.5019,441.0781 Q37.8612,441.2344 37.1581,441.2344 Q34.6581,441.2344 33.33,439.5938 Q32.0175,437.9375 32.0175,434.8125 Q32.0175,431.6875 33.33,430.0313 Q34.6581,428.375 37.1581,428.375 Q37.8612,428.375 38.5019,428.5313 Q39.1581,428.6875 39.7206,428.9844 L39.7206,431.7031 Q39.0956,431.125 38.5019,430.8594 Q37.9081,430.5781 37.2831,430.5781 Q35.9394,430.5781 35.2519,431.6563 Q34.5644,432.7188 34.5644,434.8125 Q34.5644,436.9063 35.2519,437.9844 Q35.9394,439.0469 37.2831,439.0469 Q37.9081,439.0469 38.5019,438.7813 Q39.0956,438.5 39.7206,437.9219 L39.7206,440.6406 Z " fill="#000000"/><text fill="#000000" font-family="sans-serif" font-size="14" lengthAdjust="spacing" textLength="79.9121" x="53.3634" y="439.8467">UserLinkTD</text><line style="stroke:#181818;stroke-width:0.5;" x1="11" x2="147.0273" y1="451" y2="451"/><ellipse cx="21" cy="464.6484" fill="transparent" rx="3" ry="3" style="stroke:#038048;stroke-width:1;"/><text fill="#000000" font-family="sans-serif" font-size="14" lengthAdjust="spacing" textLength="101.2607" x="30" y="467.9951">user_id: String</text><ellipse cx="21" cy="480.9453" fill="transparent" rx="3" ry="3" style="stroke:#038048;stroke-width:1;"/><text fill="#000000" font-family="sans-serif" font-size="14" lengthAdjust="spacing" textLength="112.0273" x="30" y="484.292">name_td: String</text><line style="stroke:#181818;stroke-width:0.5;" x1="11" x2="147.0273" y1="491.5938" y2="491.5938"/></g><!--reverse link Event to InsaClass--><g id="link_Event_InsaClass"><path codeLine="100" d="M690.0006,151.3217 C666.4706,187.6817 647.81,216.52 629.11,245.42 " fill="transparent" id="Event-backto-InsaClass" style="stroke:#181818;stroke-width:1;"/><polygon fill="transparent" points="699.78,136.21,684.9634,148.0619,695.0379,154.5815,699.78,136.21" style="stroke:#181818;stroke-width:1;"/></g><!--reverse link Event to InsaEvenement--><g id="link_Event_InsaEvenement"><path codeLine="101" d="M765.2069,153.4555 C774.1569,183.3855 779.49,201.21 787.74,228.8 " fill="transparent" id="Event-backto-InsaEvenement" style="stroke:#181818;stroke-width:1;"/><polygon fill="transparent" points="760.05,136.21,759.4584,155.1744,770.9554,151.7365,760.05,136.21" style="stroke:#181818;stroke-width:1;"/></g><!--link User to UserLinkTD--><g id="link_User_UserLinkTD"><path codeLine="104" d="M79,342.21 C79,367.8 79,396.5 79,418.98 " fill="transparent" id="User-UserLinkTD" style="stroke:#181818;stroke-width:1;"/><text fill="#000000" font-family="sans-serif" font-size="13" lengthAdjust="spacing" textLength="22.9785" x="80" y="385.0669">has</text><text fill="#000000" font-family="sans-serif" font-size="13" lengthAdjust="spacing" textLength="8.271" x="70.5728" y="362.6059">1</text><text fill="#000000" font-family="sans-serif" font-size="13" lengthAdjust="spacing" textLength="36.5625" x="39.9522" y="407.8398">many</text></g><!--link UserLinkTD to GroupTD--><g id="link_UserLinkTD_GroupTD"><path codeLine="105" d="M84.09,500.03 C87.19,524.09 91.1,554.4 93.98,576.78 " fill="transparent" id="UserLinkTD-GroupTD" style="stroke:#181818;stroke-width:1;"/><text fill="#000000" font-family="sans-serif" font-size="13" lengthAdjust="spacing" textLength="68.2627" x="91" y="543.0669">belongs to</text><text fill="#000000" font-family="sans-serif" font-size="13" lengthAdjust="spacing" textLength="36.5625" x="46.0751" y="519.7946">many</text><text fill="#000000" font-family="sans-serif" font-size="13" lengthAdjust="spacing" textLength="8.271" x="84.4621" y="566.0109">1</text></g><!--link Association to InsaEvenement--><g id="link_Association_InsaEvenement"><path codeLine="107" d="M1052.58,123.45 C999.64,155.79 931.6,197.35 879.78,228.99 " fill="transparent" id="Association-InsaEvenement" style="stroke:#181818;stroke-width:1;"/><text fill="#000000" font-family="sans-serif" font-size="13" lengthAdjust="spacing" textLength="33.5981" x="981" y="179.0669">owns</text><text fill="#000000" font-family="sans-serif" font-size="13" lengthAdjust="spacing" textLength="8.271" x="1036.787" y="124.4601">1</text><text fill="#000000" font-family="sans-serif" font-size="13" lengthAdjust="spacing" textLength="36.5625" x="852.6312" y="217.8482">many</text></g><!--link Association to EnumType--><g id="link_Association_EnumType"><path codeLine="108" d="M1167.54,136.21 C1185.54,172.57 1207.3,216.52 1221.61,245.42 " fill="transparent" id="Association-EnumType" style="stroke:#181818;stroke-width:1;"/><text fill="#000000" font-family="sans-serif" font-size="13" lengthAdjust="spacing" textLength="22.9785" x="1190" y="179.0669">has</text><text fill="#000000" font-family="sans-serif" font-size="13" lengthAdjust="spacing" textLength="8.271" x="1162.7151" y="156.6059">1</text><text fill="#000000" font-family="sans-serif" font-size="13" lengthAdjust="spacing" textLength="36.5625" x="1178.8173" y="234.3066">many</text></g><!--link Association to EnumSector--><g id="link_Association_EnumSector"><path codeLine="109" d="M1216.96,136.07 C1247.23,160.02 1281.82,187.6 1313,213 C1325.8,223.42 1339.69,234.96 1352.05,245.31 " fill="transparent" id="Association-EnumSector" style="stroke:#181818;stroke-width:1;"/><text fill="#000000" font-family="sans-serif" font-size="13" lengthAdjust="spacing" textLength="68.2627" x="1275" y="179.0669">belongs to</text><text fill="#000000" font-family="sans-serif" font-size="13" lengthAdjust="spacing" textLength="8.271" x="1217.8493" y="156.4497">1</text><text fill="#000000" font-family="sans-serif" font-size="13" lengthAdjust="spacing" textLength="36.5625" x="1305.2637" y="234.5468">many</text></g><!--link Association to EnumColor--><g id="link_Association_EnumColor"><path codeLine="110" d="M1104.77,136.21 C1088.61,169.18 1069.39,208.39 1055.38,236.96 " fill="transparent" id="Association-EnumColor" style="stroke:#181818;stroke-width:1;"/><text fill="#000000" font-family="sans-serif" font-size="13" lengthAdjust="spacing" textLength="29.7832" x="1090" y="179.0669">uses</text><text fill="#000000" font-family="sans-serif" font-size="13" lengthAdjust="spacing" textLength="8.271" x="1092.6873" y="156.6059">1</text><text fill="#000000" font-family="sans-serif" font-size="13" lengthAdjust="spacing" textLength="36.5625" x="1019.6389" y="225.8163">many</text></g><!--link InsaClass to ClassLinkTD--><g id="link_InsaClass_ClassLinkTD"><path codeLine="112" d="M578.52,309.85 C549.14,340.07 504.57,385.91 472.7,418.69 " fill="transparent" id="InsaClass-ClassLinkTD" style="stroke:#181818;stroke-width:1;"/><text fill="#000000" font-family="sans-serif" font-size="13" lengthAdjust="spacing" textLength="56.4243" x="518" y="385.0669">linked to</text><text fill="#000000" font-family="sans-serif" font-size="13" lengthAdjust="spacing" textLength="8.271" x="563.7285" y="329.7462">1</text><text fill="#000000" font-family="sans-serif" font-size="13" lengthAdjust="spacing" textLength="36.5625" x="440.1702" y="407.8002">many</text></g><!--link InsaClass to ClassLinkRoom--><g id="link_InsaClass_ClassLinkRoom"><path codeLine="113" d="M609,309.85 C609,340.07 609,385.91 609,418.69 " fill="transparent" id="InsaClass-ClassLinkRoom" style="stroke:#181818;stroke-width:1;"/><text fill="#000000" font-family="sans-serif" font-size="13" lengthAdjust="spacing" textLength="64.0098" x="610" y="385.0669">located in</text><text fill="#000000" font-family="sans-serif" font-size="13" lengthAdjust="spacing" textLength="8.271" x="600.2093" y="329.7462">1</text><text fill="#000000" font-family="sans-serif" font-size="13" lengthAdjust="spacing" textLength="36.5625" x="570.0606" y="407.8002">many</text></g><!--link InsaClass to ClassLinkTeacher--><g id="link_InsaClass_ClassLinkTeacher"><path codeLine="114" d="M640.7,309.85 C671.26,340.07 717.6,385.91 750.75,418.69 " fill="transparent" id="InsaClass-ClassLinkTeacher" style="stroke:#181818;stroke-width:1;"/><text fill="#000000" font-family="sans-serif" font-size="13" lengthAdjust="spacing" textLength="62.9688" x="718" y="385.0669">taught by</text><text fill="#000000" font-family="sans-serif" font-size="13" lengthAdjust="spacing" textLength="8.271" x="638.1502" y="329.7462">1</text><text fill="#000000" font-family="sans-serif" font-size="13" lengthAdjust="spacing" textLength="36.5625" x="705.1336" y="407.8002">many</text></g><!--link InsaClass to ClassLinkDepart--><g id="link_InsaClass_ClassLinkDepart"><path codeLine="115" d="M559.92,303.53 C500.05,334.05 398.32,385.93 329.2,421.18 " fill="transparent" id="InsaClass-ClassLinkDepart" style="stroke:#181818;stroke-width:1;"/><text fill="#000000" font-family="sans-serif" font-size="13" lengthAdjust="spacing" textLength="68.2627" x="423" y="385.0669">belongs to</text><text fill="#000000" font-family="sans-serif" font-size="13" lengthAdjust="spacing" textLength="8.271" x="543.7896" y="303.4217">1</text><text fill="#000000" font-family="sans-serif" font-size="13" lengthAdjust="spacing" textLength="36.5625" x="327.2324" y="407.9778">many</text></g><!--link InsaEvenement to EvenementLinkEventRoom--><g id="link_InsaEvenement_EvenementLinkEventRoom"><path codeLine="117" d="M857.98,326.03 C892.08,354.98 935.15,391.55 967.39,418.93 " fill="transparent" id="InsaEvenement-EvenementLinkEventRoom" style="stroke:#181818;stroke-width:1;"/><text fill="#000000" font-family="sans-serif" font-size="13" lengthAdjust="spacing" textLength="71.7031" x="928" y="385.0669">happens in</text><text fill="#000000" font-family="sans-serif" font-size="13" lengthAdjust="spacing" textLength="8.271" x="857.3372" y="345.9931">1</text><text fill="#000000" font-family="sans-serif" font-size="13" lengthAdjust="spacing" textLength="36.5625" x="920.7259" y="408.0799">many</text></g><!--link EvenementLinkEventRoom to EvenementRoom--><g id="link_EvenementLinkEventRoom_EvenementRoom"><path codeLine="119" d="M1014,500.03 C1014,524.09 1014,554.4 1014,576.78 " fill="transparent" id="EvenementLinkEventRoom-EvenementRoom" style="stroke:#181818;stroke-width:1;"/><text fill="#000000" font-family="sans-serif" font-size="13" lengthAdjust="spacing" textLength="58.5889" x="1015" y="543.0669">occurs in</text><text fill="#000000" font-family="sans-serif" font-size="13" lengthAdjust="spacing" textLength="36.5625" x="975.1668" y="519.7946">many</text><text fill="#000000" font-family="sans-serif" font-size="13" lengthAdjust="spacing" textLength="8.271" x="1005.2057" y="566.0109">1</text></g><!--link ClassLinkTD to GroupTD--><g id="link_ClassLinkTD_GroupTD"><path codeLine="121" d="M392.05,500.19 C372.2,516.97 347.31,535.3 322,547 C263.45,574.06 241.91,558.88 180,577 C172.4,579.22 164.51,581.82 156.76,584.55 " fill="transparent" id="ClassLinkTD-GroupTD" style="stroke:#181818;stroke-width:1;"/><text fill="#000000" font-family="sans-serif" font-size="13" lengthAdjust="spacing" textLength="101.2515" x="354" y="543.0669">associated with</text><text fill="#000000" font-family="sans-serif" font-size="13" lengthAdjust="spacing" textLength="36.5625" x="346.9088" y="519.6773">many</text><text fill="#000000" font-family="sans-serif" font-size="13" lengthAdjust="spacing" textLength="8.271" x="164.0524" y="577.9132">1</text></g><!--link ClassLinkRoom to Room--><g id="link_ClassLinkRoom_Room"><path codeLine="122" d="M609,500.03 C609,524.09 609,554.4 609,576.78 " fill="transparent" id="ClassLinkRoom-Room" style="stroke:#181818;stroke-width:1;"/><text fill="#000000" font-family="sans-serif" font-size="13" lengthAdjust="spacing" textLength="75.0483" x="610" y="543.0669">assigned to</text><text fill="#000000" font-family="sans-serif" font-size="13" lengthAdjust="spacing" textLength="36.5625" x="570.1715" y="519.7946">many</text><text fill="#000000" font-family="sans-serif" font-size="13" lengthAdjust="spacing" textLength="8.271" x="600.2735" y="566.0109">1</text></g><!--link ClassLinkTeacher to Teacher--><g id="link_ClassLinkTeacher_Teacher"><path codeLine="123" d="M791,500.03 C791,524.09 791,554.4 791,576.78 " fill="transparent" id="ClassLinkTeacher-Teacher" style="stroke:#181818;stroke-width:1;"/><text fill="#000000" font-family="sans-serif" font-size="13" lengthAdjust="spacing" textLength="85.8774" x="792" y="543.0669">instructed by</text><text fill="#000000" font-family="sans-serif" font-size="13" lengthAdjust="spacing" textLength="36.5625" x="752.1613" y="519.7946">many</text><text fill="#000000" font-family="sans-serif" font-size="13" lengthAdjust="spacing" textLength="8.271" x="782.2735" y="566.0109">1</text></g><!--link ClassLinkDepart to Department--><g id="link_ClassLinkDepart_Department"><path codeLine="124" d="M256,500.03 C256,524.09 256,554.4 256,576.78 " fill="transparent" id="ClassLinkDepart-Department" style="stroke:#181818;stroke-width:1;"/><text fill="#000000" font-family="sans-serif" font-size="13" lengthAdjust="spacing" textLength="56.4243" x="257" y="543.0669">linked to</text><text fill="#000000" font-family="sans-serif" font-size="13" lengthAdjust="spacing" textLength="36.5625" x="217.2074" y="519.7946">many</text><text fill="#000000" font-family="sans-serif" font-size="13" lengthAdjust="spacing" textLength="8.271" x="247.267" y="566.0109">1</text></g><!--SRC=[bLQnRjim4Dtv5GSl6OeCNOakRHmK0JebxYpGrDaY8f4gISKmslvxIOcMH9gMN0-1SNptxlZk-9m7sE91I0IsDrOpRe7Np1WuA0tF7oWjIGxw8Fmcu3wVG9GKNgJ58-eGAPb52bltDmICPTeMbUeqXPreBc6KvNMmHCCfl5ajv97y9MGe-TEWZYe6G21gcAYJMElIJagdKCaQJ4AiR8Iay4sf6fcSQhv8mvxwRxchHZ2l23RBgZYiuiA9KXQraEzf4-5KA5dCxZTM-JgTZpKoT-cSJaLEZawANnqMNDLA9qVstAOq1hcTuSOkdcNNx1mytq84U-ifxW0- -PP6t0Uhk-ob3bguVQdFHPxfkrPTkzkkrDjYwpOn6bGUk4F6Arnh_rMfPks6bytu7-mFjn_z8ukIy79SN2-NTi3itlGBxFbcslGd6H9RBbD4tTmYkQEJHDkRxGouPR9XegjSPG_BKdbhIGJg5qxahAEm4SE3A-DQ59P9ZeOCnlZbp-FZP1vfS1ooptx5kd_IfXAj8Rt9RJvlm44t3PFdpRmv2XKRC24G81xiSYuFWC8UQoMF1gmYP6uRCNDiMnJKIPe5-FZoXpQMWU7jHwqiPmmcGBtoXf39UMFaV9afU1V5qdElullDTHcAU_y58Uye4RQKWcNTiRAmFwydXMsCPn0hdTmz_-Izo6sBqlXMoGrGFF_OQDmyEU_qa3-NxTRIJBzES1As8h5qSLQeu03YA8S9NCaMPqnY2kd-bUYuh-C4JOMBisPkFPlsFm00]--></g></svg>