<?xml version="1.0" encoding="UTF-8" standalone="no"?><svg xmlns="http://www.w3.org/2000/svg" xmlns:xlink="http://www.w3.org/1999/xlink" contentStyleType="text/css" height="616px" preserveAspectRatio="none" style="width:1989px;height:616px;background:#FFFFFF;" version="1.1" viewBox="0 0 1989 616" width="1989px" zoomAndPan="magnify"><defs/><g><!--MD5=[e59cf999063292dce8d6ea34dd10a338]
class user--><g id="elem_user"><rect codeLine="1" fill="#F1F1F1" height="129.4844" id="user" rx="2.5" ry="2.5" style="stroke:#181818;stroke-width:0.5;" width="164" x="21" y="7"/><ellipse cx="83.25" cy="23" fill="#ADD1B2" rx="11" ry="11" style="stroke:#181818;stroke-width:1.0;"/><path d="M87.3594,29 L79.6406,29 L79.6406,16.6094 L87.3594,16.6094 L87.3594,18.7656 L82.0938,18.7656 L82.0938,21.4375 L86.8594,21.4375 L86.8594,23.5938 L82.0938,23.5938 L82.0938,26.8438 L87.3594,26.8438 L87.3594,29 Z " fill="#000000"/><text fill="#000000" font-family="sans-serif" font-size="14" lengthAdjust="spacing" textLength="31" x="103.75" y="27.8467">user</text><line style="stroke:#181818;stroke-width:0.5;" x1="22" x2="184" y1="39" y2="39"/><ellipse cx="32" cy="52.6484" fill="#000000" rx="3" ry="3" style="stroke:#000000;stroke-width:1.0;"/><text fill="#000000" font-family="sans-serif" font-size="14" lengthAdjust="spacing" textLength="93" x="41" y="55.9951">id: String [PK]</text><line style="stroke:#181818;stroke-width:1.0;" x1="22" x2="184" y1="63.2969" y2="63.2969"/><text fill="#000000" font-family="sans-serif" font-size="14" lengthAdjust="spacing" textLength="152" x="27" y="80.292">email: String [UNIQUE]</text><text fill="#000000" font-family="sans-serif" font-size="14" lengthAdjust="spacing" textLength="116" x="27" y="96.5889">password: String</text><text fill="#000000" font-family="sans-serif" font-size="14" lengthAdjust="spacing" textLength="88" x="27" y="112.8857">name: String</text><text fill="#000000" font-family="sans-serif" font-size="14" lengthAdjust="spacing" textLength="108" x="27" y="129.1826">admin: Boolean</text></g><!--MD5=[a7e03ffe6065028c1f0da115e543c5eb]
class insa_class--><g id="elem_insa_class"><rect codeLine="10" fill="#F1F1F1" height="64.2969" id="insa_class" rx="2.5" ry="2.5" style="stroke:#181818;stroke-width:0.5;" width="128" x="648" y="39.5"/><ellipse cx="674.7" cy="55.5" fill="#ADD1B2" rx="11" ry="11" style="stroke:#181818;stroke-width:1.0;"/><path d="M678.8094,61.5 L671.0906,61.5 L671.0906,49.1094 L678.8094,49.1094 L678.8094,51.2656 L673.5438,51.2656 L673.5438,53.9375 L678.3094,53.9375 L678.3094,56.0938 L673.5438,56.0938 L673.5438,59.3438 L678.8094,59.3438 L678.8094,61.5 Z " fill="#000000"/><text fill="#000000" font-family="sans-serif" font-size="14" lengthAdjust="spacing" textLength="70" x="691.3" y="60.3467">insa_class</text><line style="stroke:#181818;stroke-width:0.5;" x1="649" x2="775" y1="71.5" y2="71.5"/><ellipse cx="659" cy="85.1484" fill="#000000" rx="3" ry="3" style="stroke:#000000;stroke-width:1.0;"/><text fill="#000000" font-family="sans-serif" font-size="14" lengthAdjust="spacing" textLength="102" x="668" y="88.4951">id: Integer [PK]</text><line style="stroke:#181818;stroke-width:0.5;" x1="649" x2="775" y1="95.7969" y2="95.7969"/></g><!--MD5=[9d4181ed23a9b70e0e39d8302c34b705]
class insa_evenement--><g id="elem_insa_evenement"><rect codeLine="14" fill="#F1F1F1" height="96.8906" id="insa_evenement" rx="2.5" ry="2.5" style="stroke:#181818;stroke-width:0.5;" width="203" x="1173.5" y="213"/><ellipse cx="1214.15" cy="229" fill="#ADD1B2" rx="11" ry="11" style="stroke:#181818;stroke-width:1.0;"/><path d="M1218.2594,235 L1210.5406,235 L1210.5406,222.6094 L1218.2594,222.6094 L1218.2594,224.7656 L1212.9938,224.7656 L1212.9938,227.4375 L1217.7594,227.4375 L1217.7594,229.5938 L1212.9938,229.5938 L1212.9938,232.8438 L1218.2594,232.8438 L1218.2594,235 Z " fill="#000000"/><text fill="#000000" font-family="sans-serif" font-size="14" lengthAdjust="spacing" textLength="114" x="1233.85" y="233.8467">insa_evenement</text><line style="stroke:#181818;stroke-width:0.5;" x1="1174.5" x2="1375.5" y1="245" y2="245"/><ellipse cx="1184.5" cy="258.6484" fill="#000000" rx="3" ry="3" style="stroke:#000000;stroke-width:1.0;"/><text fill="#000000" font-family="sans-serif" font-size="14" lengthAdjust="spacing" textLength="102" x="1193.5" y="261.9951">id: Integer [PK]</text><text fill="#000000" font-family="sans-serif" font-size="14" lengthAdjust="spacing" textLength="154" x="1193.5" y="278.292">associated_link: String</text><text fill="#000000" font-family="sans-serif" font-size="14" lengthAdjust="spacing" textLength="177" x="1193.5" y="294.5889">association_id: String [FK]</text><line style="stroke:#181818;stroke-width:0.5;" x1="1174.5" x2="1375.5" y1="301.8906" y2="301.8906"/></g><!--MD5=[1ff3e94736069313bc58fd7a2d79a7fa]
class association--><g id="elem_association"><rect codeLine="20" fill="#F1F1F1" height="129.4844" id="association" rx="2.5" ry="2.5" style="stroke:#181818;stroke-width:0.5;" width="195" x="1477.5" y="7"/><ellipse cx="1531.75" cy="23" fill="#ADD1B2" rx="11" ry="11" style="stroke:#181818;stroke-width:1.0;"/><path d="M1535.8594,29 L1528.1406,29 L1528.1406,16.6094 L1535.8594,16.6094 L1535.8594,18.7656 L1530.5938,18.7656 L1530.5938,21.4375 L1535.3594,21.4375 L1535.3594,23.5938 L1530.5938,23.5938 L1530.5938,26.8438 L1535.8594,26.8438 L1535.8594,29 Z " fill="#000000"/><text fill="#000000" font-family="sans-serif" font-size="14" lengthAdjust="spacing" textLength="78" x="1552.25" y="27.8467">association</text><line style="stroke:#181818;stroke-width:0.5;" x1="1478.5" x2="1671.5" y1="39" y2="39"/><ellipse cx="1488.5" cy="52.6484" fill="#000000" rx="3" ry="3" style="stroke:#000000;stroke-width:1.0;"/><text fill="#000000" font-family="sans-serif" font-size="14" lengthAdjust="spacing" textLength="120" x="1497.5" y="55.9951">name: String [PK]</text><text fill="#000000" font-family="sans-serif" font-size="14" lengthAdjust="spacing" textLength="154" x="1497.5" y="72.292">user_email: String [FK]</text><text fill="#000000" font-family="sans-serif" font-size="14" lengthAdjust="spacing" textLength="169" x="1497.5" y="88.5889">unique_color: String [FK]</text><text fill="#000000" font-family="sans-serif" font-size="14" lengthAdjust="spacing" textLength="110" x="1497.5" y="104.8857">type: String [FK]</text><text fill="#000000" font-family="sans-serif" font-size="14" lengthAdjust="spacing" textLength="124" x="1497.5" y="121.1826">sector: String [FK]</text><line style="stroke:#181818;stroke-width:0.5;" x1="1478.5" x2="1671.5" y1="128.4844" y2="128.4844"/></g><!--MD5=[af43fd0ab4bfb0a83aeee94915a0a003]
class enum_type--><g id="elem_enum_type"><rect codeLine="28" fill="#F1F1F1" height="64.2969" id="enum_type" rx="2.5" ry="2.5" style="stroke:#181818;stroke-width:0.5;" width="146" x="1412" y="229.5"/><ellipse cx="1443.65" cy="245.5" fill="#ADD1B2" rx="11" ry="11" style="stroke:#181818;stroke-width:1.0;"/><path d="M1447.7594,251.5 L1440.0406,251.5 L1440.0406,239.1094 L1447.7594,239.1094 L1447.7594,241.2656 L1442.4938,241.2656 L1442.4938,243.9375 L1447.2594,243.9375 L1447.2594,246.0938 L1442.4938,246.0938 L1442.4938,249.3438 L1447.7594,249.3438 L1447.7594,251.5 Z " fill="#000000"/><text fill="#000000" font-family="sans-serif" font-size="14" lengthAdjust="spacing" textLength="77" x="1461.35" y="250.3467">enum_type</text><line style="stroke:#181818;stroke-width:0.5;" x1="1413" x2="1557" y1="261.5" y2="261.5"/><ellipse cx="1423" cy="275.1484" fill="#000000" rx="3" ry="3" style="stroke:#000000;stroke-width:1.0;"/><text fill="#000000" font-family="sans-serif" font-size="14" lengthAdjust="spacing" textLength="120" x="1432" y="278.4951">name: String [PK]</text><line style="stroke:#181818;stroke-width:0.5;" x1="1413" x2="1557" y1="285.7969" y2="285.7969"/></g><!--MD5=[8843f00b4a5e2f22da02b59bd88c4fa3]
class enum_sector--><g id="elem_enum_sector"><rect codeLine="32" fill="#F1F1F1" height="64.2969" id="enum_sector" rx="2.5" ry="2.5" style="stroke:#181818;stroke-width:0.5;" width="146" x="1593" y="229.5"/><ellipse cx="1618.35" cy="245.5" fill="#ADD1B2" rx="11" ry="11" style="stroke:#181818;stroke-width:1.0;"/><path d="M1622.4594,251.5 L1614.7406,251.5 L1614.7406,239.1094 L1622.4594,239.1094 L1622.4594,241.2656 L1617.1938,241.2656 L1617.1938,243.9375 L1621.9594,243.9375 L1621.9594,246.0938 L1617.1938,246.0938 L1617.1938,249.3438 L1622.4594,249.3438 L1622.4594,251.5 Z " fill="#000000"/><text fill="#000000" font-family="sans-serif" font-size="14" lengthAdjust="spacing" textLength="91" x="1634.65" y="250.3467">enum_sector</text><line style="stroke:#181818;stroke-width:0.5;" x1="1594" x2="1738" y1="261.5" y2="261.5"/><ellipse cx="1604" cy="275.1484" fill="#000000" rx="3" ry="3" style="stroke:#000000;stroke-width:1.0;"/><text fill="#000000" font-family="sans-serif" font-size="14" lengthAdjust="spacing" textLength="120" x="1613" y="278.4951">name: String [PK]</text><line style="stroke:#181818;stroke-width:0.5;" x1="1594" x2="1738" y1="285.7969" y2="285.7969"/></g><!--MD5=[b982114fe6de23bec7aff2ea48b840e0]
class enum_color--><g id="elem_enum_color"><rect codeLine="36" fill="#F1F1F1" height="80.5938" id="enum_color" rx="2.5" ry="2.5" style="stroke:#181818;stroke-width:0.5;" width="208" x="1774" y="221"/><ellipse cx="1833.25" cy="237" fill="#ADD1B2" rx="11" ry="11" style="stroke:#181818;stroke-width:1.0;"/><path d="M1837.3594,243 L1829.6406,243 L1829.6406,230.6094 L1837.3594,230.6094 L1837.3594,232.7656 L1832.0938,232.7656 L1832.0938,235.4375 L1836.8594,235.4375 L1836.8594,237.5938 L1832.0938,237.5938 L1832.0938,240.8438 L1837.3594,240.8438 L1837.3594,243 Z " fill="#000000"/><text fill="#000000" font-family="sans-serif" font-size="14" lengthAdjust="spacing" textLength="81" x="1853.75" y="241.8467">enum_color</text><line style="stroke:#181818;stroke-width:0.5;" x1="1775" x2="1981" y1="253" y2="253"/><ellipse cx="1785" cy="266.6484" fill="#000000" rx="3" ry="3" style="stroke:#000000;stroke-width:1.0;"/><text fill="#000000" font-family="sans-serif" font-size="14" lengthAdjust="spacing" textLength="117" x="1794" y="269.9951">value: String [PK]</text><text fill="#000000" font-family="sans-serif" font-size="14" lengthAdjust="spacing" textLength="182" x="1794" y="286.292">user_friendly_name: String</text><line style="stroke:#181818;stroke-width:0.5;" x1="1775" x2="1981" y1="293.5938" y2="293.5938"/></g><!--MD5=[f7a241f9b48800f01dfd3f50278746bd]
class td_group--><g id="elem_td_group"><rect codeLine="41" fill="#F1F1F1" height="64.2969" id="td_group" rx="2.5" ry="2.5" style="stroke:#181818;stroke-width:0.5;" width="146" x="130" y="395.5"/><ellipse cx="168.4" cy="411.5" fill="#ADD1B2" rx="11" ry="11" style="stroke:#181818;stroke-width:1.0;"/><path d="M172.5094,417.5 L164.7906,417.5 L164.7906,405.1094 L172.5094,405.1094 L172.5094,407.2656 L167.2438,407.2656 L167.2438,409.9375 L172.0094,409.9375 L172.0094,412.0938 L167.2438,412.0938 L167.2438,415.3438 L172.5094,415.3438 L172.5094,417.5 Z " fill="#000000"/><text fill="#000000" font-family="sans-serif" font-size="14" lengthAdjust="spacing" textLength="62" x="187.6" y="416.3467">td_group</text><line style="stroke:#181818;stroke-width:0.5;" x1="131" x2="275" y1="427.5" y2="427.5"/><ellipse cx="141" cy="441.1484" fill="#000000" rx="3" ry="3" style="stroke:#000000;stroke-width:1.0;"/><text fill="#000000" font-family="sans-serif" font-size="14" lengthAdjust="spacing" textLength="120" x="150" y="444.4951">name: String [PK]</text><line style="stroke:#181818;stroke-width:0.5;" x1="131" x2="275" y1="451.7969" y2="451.7969"/></g><!--MD5=[58eb5da001b2d02663f19cc9031adb41]
class department--><g id="elem_department"><rect codeLine="45" fill="#F1F1F1" height="64.2969" id="department" rx="2.5" ry="2.5" style="stroke:#181818;stroke-width:0.5;" width="146" x="959" y="395.5"/><ellipse cx="988.85" cy="411.5" fill="#ADD1B2" rx="11" ry="11" style="stroke:#181818;stroke-width:1.0;"/><path d="M992.9594,417.5 L985.2406,417.5 L985.2406,405.1094 L992.9594,405.1094 L992.9594,407.2656 L987.6938,407.2656 L987.6938,409.9375 L992.4594,409.9375 L992.4594,412.0938 L987.6938,412.0938 L987.6938,415.3438 L992.9594,415.3438 L992.9594,417.5 Z " fill="#000000"/><text fill="#000000" font-family="sans-serif" font-size="14" lengthAdjust="spacing" textLength="81" x="1006.15" y="416.3467">department</text><line style="stroke:#181818;stroke-width:0.5;" x1="960" x2="1104" y1="427.5" y2="427.5"/><ellipse cx="970" cy="441.1484" fill="#000000" rx="3" ry="3" style="stroke:#000000;stroke-width:1.0;"/><text fill="#000000" font-family="sans-serif" font-size="14" lengthAdjust="spacing" textLength="120" x="979" y="444.4951">name: String [PK]</text><line style="stroke:#181818;stroke-width:0.5;" x1="960" x2="1104" y1="451.7969" y2="451.7969"/></g><!--MD5=[6acbf3e1fc77deeefcfdb85d4167ea16]
class teacher--><g id="elem_teacher"><rect codeLine="49" fill="#F1F1F1" height="64.2969" id="teacher" rx="2.5" ry="2.5" style="stroke:#181818;stroke-width:0.5;" width="146" x="724" y="395.5"/><ellipse cx="766.45" cy="411.5" fill="#ADD1B2" rx="11" ry="11" style="stroke:#181818;stroke-width:1.0;"/><path d="M770.5594,417.5 L762.8406,417.5 L762.8406,405.1094 L770.5594,405.1094 L770.5594,407.2656 L765.2938,407.2656 L765.2938,409.9375 L770.0594,409.9375 L770.0594,412.0938 L765.2938,412.0938 L765.2938,415.3438 L770.5594,415.3438 L770.5594,417.5 Z " fill="#000000"/><text fill="#000000" font-family="sans-serif" font-size="14" lengthAdjust="spacing" textLength="53" x="786.55" y="416.3467">teacher</text><line style="stroke:#181818;stroke-width:0.5;" x1="725" x2="869" y1="427.5" y2="427.5"/><ellipse cx="735" cy="441.1484" fill="#000000" rx="3" ry="3" style="stroke:#000000;stroke-width:1.0;"/><text fill="#000000" font-family="sans-serif" font-size="14" lengthAdjust="spacing" textLength="120" x="744" y="444.4951">name: String [PK]</text><line style="stroke:#181818;stroke-width:0.5;" x1="725" x2="869" y1="451.7969" y2="451.7969"/></g><!--MD5=[3e91a4b4113ea64e939288529d461126]
class room--><g id="elem_room"><rect codeLine="53" fill="#F1F1F1" height="64.2969" id="room" rx="2.5" ry="2.5" style="stroke:#181818;stroke-width:0.5;" width="146" x="489" y="395.5"/><ellipse cx="539.75" cy="411.5" fill="#ADD1B2" rx="11" ry="11" style="stroke:#181818;stroke-width:1.0;"/><path d="M543.8594,417.5 L536.1406,417.5 L536.1406,405.1094 L543.8594,405.1094 L543.8594,407.2656 L538.5938,407.2656 L538.5938,409.9375 L543.3594,409.9375 L543.3594,412.0938 L538.5938,412.0938 L538.5938,415.3438 L543.8594,415.3438 L543.8594,417.5 Z " fill="#000000"/><text fill="#000000" font-family="sans-serif" font-size="14" lengthAdjust="spacing" textLength="36" x="560.25" y="416.3467">room</text><line style="stroke:#181818;stroke-width:0.5;" x1="490" x2="634" y1="427.5" y2="427.5"/><ellipse cx="500" cy="441.1484" fill="#000000" rx="3" ry="3" style="stroke:#000000;stroke-width:1.0;"/><text fill="#000000" font-family="sans-serif" font-size="14" lengthAdjust="spacing" textLength="120" x="509" y="444.4951">name: String [PK]</text><line style="stroke:#181818;stroke-width:0.5;" x1="490" x2="634" y1="451.7969" y2="451.7969"/></g><!--MD5=[6e929b0a53949a24d0f1b35a1f53cb08]
class evenement_room--><g id="elem_evenement_room"><rect codeLine="57" fill="#F1F1F1" height="64.2969" id="evenement_room" rx="2.5" ry="2.5" style="stroke:#181818;stroke-width:0.5;" width="154" x="1198" y="545"/><ellipse cx="1213" cy="561" fill="#ADD1B2" rx="11" ry="11" style="stroke:#181818;stroke-width:1.0;"/><path d="M1217.1094,567 L1209.3906,567 L1209.3906,554.6094 L1217.1094,554.6094 L1217.1094,556.7656 L1211.8438,556.7656 L1211.8438,559.4375 L1216.6094,559.4375 L1216.6094,561.5938 L1211.8438,561.5938 L1211.8438,564.8438 L1217.1094,564.8438 L1217.1094,567 Z " fill="#000000"/><text fill="#000000" font-family="sans-serif" font-size="14" lengthAdjust="spacing" textLength="122" x="1227" y="565.8467">evenement_room</text><line style="stroke:#181818;stroke-width:0.5;" x1="1199" x2="1351" y1="577" y2="577"/><ellipse cx="1209" cy="590.6484" fill="#000000" rx="3" ry="3" style="stroke:#000000;stroke-width:1.0;"/><text fill="#000000" font-family="sans-serif" font-size="14" lengthAdjust="spacing" textLength="120" x="1218" y="593.9951">name: String [PK]</text><line style="stroke:#181818;stroke-width:0.5;" x1="1199" x2="1351" y1="601.2969" y2="601.2969"/></g><!--MD5=[9343adb78319b4c827c7a304a35bf2ae]
class evenement_link_evenement_room--><g id="elem_evenement_link_evenement_room"><rect codeLine="61" fill="#F1F1F1" height="80.5938" id="evenement_link_evenement_room" rx="2.5" ry="2.5" style="stroke:#181818;stroke-width:0.5;" width="270" x="1140" y="387"/><ellipse cx="1155" cy="403" fill="#ADD1B2" rx="11" ry="11" style="stroke:#181818;stroke-width:1.0;"/><path d="M1159.1094,409 L1151.3906,409 L1151.3906,396.6094 L1159.1094,396.6094 L1159.1094,398.7656 L1153.8438,398.7656 L1153.8438,401.4375 L1158.6094,401.4375 L1158.6094,403.5938 L1153.8438,403.5938 L1153.8438,406.8438 L1159.1094,406.8438 L1159.1094,409 Z " fill="#000000"/><text fill="#000000" font-family="sans-serif" font-size="14" lengthAdjust="spacing" textLength="238" x="1169" y="407.8467">evenement_link_evenement_room</text><line style="stroke:#181818;stroke-width:0.5;" x1="1141" x2="1409" y1="419" y2="419"/><ellipse cx="1151" cy="432.6484" fill="#000000" rx="3" ry="3" style="stroke:#000000;stroke-width:1.0;"/><text fill="#000000" font-family="sans-serif" font-size="14" lengthAdjust="spacing" textLength="213" x="1160" y="435.9951">evenement_id: Integer [PK, FK]</text><ellipse cx="1151" cy="448.9453" fill="#000000" rx="3" ry="3" style="stroke:#000000;stroke-width:1.0;"/><text fill="#000000" font-family="sans-serif" font-size="14" lengthAdjust="spacing" textLength="161" x="1160" y="452.292">room_id: String [PK, FK]</text><line style="stroke:#181818;stroke-width:0.5;" x1="1141" x2="1409" y1="459.5938" y2="459.5938"/></g><!--MD5=[d8d7b4a41fa7379150690ab21dfa2dc1]
class class_link_td--><g id="elem_class_link_td"><rect codeLine="66" fill="#F1F1F1" height="80.5938" id="class_link_td" rx="2.5" ry="2.5" style="stroke:#181818;stroke-width:0.5;" width="195" x="234.5" y="221"/><ellipse cx="284.75" cy="237" fill="#ADD1B2" rx="11" ry="11" style="stroke:#181818;stroke-width:1.0;"/><path d="M288.8594,243 L281.1406,243 L281.1406,230.6094 L288.8594,230.6094 L288.8594,232.7656 L283.5938,232.7656 L283.5938,235.4375 L288.3594,235.4375 L288.3594,237.5938 L283.5938,237.5938 L283.5938,240.8438 L288.8594,240.8438 L288.8594,243 Z " fill="#000000"/><text fill="#000000" font-family="sans-serif" font-size="14" lengthAdjust="spacing" textLength="86" x="305.25" y="241.8467">class_link_td</text><line style="stroke:#181818;stroke-width:0.5;" x1="235.5" x2="428.5" y1="253" y2="253"/><ellipse cx="245.5" cy="266.6484" fill="#000000" rx="3" ry="3" style="stroke:#000000;stroke-width:1.0;"/><text fill="#000000" font-family="sans-serif" font-size="14" lengthAdjust="spacing" textLength="169" x="254.5" y="269.9951">class_id: Integer [PK, FK]</text><ellipse cx="245.5" cy="282.9453" fill="#000000" rx="3" ry="3" style="stroke:#000000;stroke-width:1.0;"/><text fill="#000000" font-family="sans-serif" font-size="14" lengthAdjust="spacing" textLength="139" x="254.5" y="286.292">td_id: String [PK, FK]</text><line style="stroke:#181818;stroke-width:0.5;" x1="235.5" x2="428.5" y1="293.5938" y2="293.5938"/></g><!--MD5=[f8e11927b2f46e970cbec9b53877a6a0]
class class_link_room--><g id="elem_class_link_room"><rect codeLine="71" fill="#F1F1F1" height="80.5938" id="class_link_room" rx="2.5" ry="2.5" style="stroke:#181818;stroke-width:0.5;" width="195" x="464.5" y="221"/><ellipse cx="504.25" cy="237" fill="#ADD1B2" rx="11" ry="11" style="stroke:#181818;stroke-width:1.0;"/><path d="M508.3594,243 L500.6406,243 L500.6406,230.6094 L508.3594,230.6094 L508.3594,232.7656 L503.0938,232.7656 L503.0938,235.4375 L507.8594,235.4375 L507.8594,237.5938 L503.0938,237.5938 L503.0938,240.8438 L508.3594,240.8438 L508.3594,243 Z " fill="#000000"/><text fill="#000000" font-family="sans-serif" font-size="14" lengthAdjust="spacing" textLength="108" x="523.75" y="241.8467">class_link_room</text><line style="stroke:#181818;stroke-width:0.5;" x1="465.5" x2="658.5" y1="253" y2="253"/><ellipse cx="475.5" cy="266.6484" fill="#000000" rx="3" ry="3" style="stroke:#000000;stroke-width:1.0;"/><text fill="#000000" font-family="sans-serif" font-size="14" lengthAdjust="spacing" textLength="169" x="484.5" y="269.9951">class_id: Integer [PK, FK]</text><ellipse cx="475.5" cy="282.9453" fill="#000000" rx="3" ry="3" style="stroke:#000000;stroke-width:1.0;"/><text fill="#000000" font-family="sans-serif" font-size="14" lengthAdjust="spacing" textLength="161" x="484.5" y="286.292">room_id: String [PK, FK]</text><line style="stroke:#181818;stroke-width:0.5;" x1="465.5" x2="658.5" y1="293.5938" y2="293.5938"/></g><!--MD5=[d05a0c93922bc3299ce9dfd1aa1cee94]
class class_link_teacher--><g id="elem_class_link_teacher"><rect codeLine="76" fill="#F1F1F1" height="80.5938" id="class_link_teacher" rx="2.5" ry="2.5" style="stroke:#181818;stroke-width:0.5;" width="204" x="695" y="221"/><ellipse cx="731.15" cy="237" fill="#ADD1B2" rx="11" ry="11" style="stroke:#181818;stroke-width:1.0;"/><path d="M735.2594,243 L727.5406,243 L727.5406,230.6094 L735.2594,230.6094 L735.2594,232.7656 L729.9938,232.7656 L729.9938,235.4375 L734.7594,235.4375 L734.7594,237.5938 L729.9938,237.5938 L729.9938,240.8438 L735.2594,240.8438 L735.2594,243 Z " fill="#000000"/><text fill="#000000" font-family="sans-serif" font-size="14" lengthAdjust="spacing" textLength="125" x="749.85" y="241.8467">class_link_teacher</text><line style="stroke:#181818;stroke-width:0.5;" x1="696" x2="898" y1="253" y2="253"/><ellipse cx="706" cy="266.6484" fill="#000000" rx="3" ry="3" style="stroke:#000000;stroke-width:1.0;"/><text fill="#000000" font-family="sans-serif" font-size="14" lengthAdjust="spacing" textLength="169" x="715" y="269.9951">class_id: Integer [PK, FK]</text><ellipse cx="706" cy="282.9453" fill="#000000" rx="3" ry="3" style="stroke:#000000;stroke-width:1.0;"/><text fill="#000000" font-family="sans-serif" font-size="14" lengthAdjust="spacing" textLength="178" x="715" y="286.292">teacher_id: String [PK, FK]</text><line style="stroke:#181818;stroke-width:0.5;" x1="696" x2="898" y1="293.5938" y2="293.5938"/></g><!--MD5=[d0c6af0abf71149aa1d4651d6ff82c60]
class class_link_depart--><g id="elem_class_link_depart"><rect codeLine="81" fill="#F1F1F1" height="80.5938" id="class_link_depart" rx="2.5" ry="2.5" style="stroke:#181818;stroke-width:0.5;" width="196" x="934" y="221"/><ellipse cx="970.15" cy="237" fill="#ADD1B2" rx="11" ry="11" style="stroke:#181818;stroke-width:1.0;"/><path d="M974.2594,243 L966.5406,243 L966.5406,230.6094 L974.2594,230.6094 L974.2594,232.7656 L968.9938,232.7656 L968.9938,235.4375 L973.7594,235.4375 L973.7594,237.5938 L968.9938,237.5938 L968.9938,240.8438 L974.2594,240.8438 L974.2594,243 Z " fill="#000000"/><text fill="#000000" font-family="sans-serif" font-size="14" lengthAdjust="spacing" textLength="117" x="988.85" y="241.8467">class_link_depart</text><line style="stroke:#181818;stroke-width:0.5;" x1="935" x2="1129" y1="253" y2="253"/><ellipse cx="945" cy="266.6484" fill="#000000" rx="3" ry="3" style="stroke:#000000;stroke-width:1.0;"/><text fill="#000000" font-family="sans-serif" font-size="14" lengthAdjust="spacing" textLength="169" x="954" y="269.9951">class_id: Integer [PK, FK]</text><ellipse cx="945" cy="282.9453" fill="#000000" rx="3" ry="3" style="stroke:#000000;stroke-width:1.0;"/><text fill="#000000" font-family="sans-serif" font-size="14" lengthAdjust="spacing" textLength="170" x="954" y="286.292">depart_id: String [PK, FK]</text><line style="stroke:#181818;stroke-width:0.5;" x1="935" x2="1129" y1="293.5938" y2="293.5938"/></g><!--MD5=[faa2d85e65915526e319f57132d6f6de]
class user_link_td--><g id="elem_user_link_td"><rect codeLine="86" fill="#F1F1F1" height="80.5938" id="user_link_td" rx="2.5" ry="2.5" style="stroke:#181818;stroke-width:0.5;" width="192" x="7" y="221"/><ellipse cx="57.75" cy="237" fill="#ADD1B2" rx="11" ry="11" style="stroke:#181818;stroke-width:1.0;"/><path d="M61.8594,243 L54.1406,243 L54.1406,230.6094 L61.8594,230.6094 L61.8594,232.7656 L56.5938,232.7656 L56.5938,235.4375 L61.3594,235.4375 L61.3594,237.5938 L56.5938,237.5938 L56.5938,240.8438 L61.8594,240.8438 L61.8594,243 Z " fill="#000000"/><text fill="#000000" font-family="sans-serif" font-size="14" lengthAdjust="spacing" textLength="82" x="78.25" y="241.8467">user_link_td</text><line style="stroke:#181818;stroke-width:0.5;" x1="8" x2="198" y1="253" y2="253"/><ellipse cx="18" cy="266.6484" fill="#000000" rx="3" ry="3" style="stroke:#000000;stroke-width:1.0;"/><text fill="#000000" font-family="sans-serif" font-size="14" lengthAdjust="spacing" textLength="156" x="27" y="269.9951">user_id: String [PK, FK]</text><ellipse cx="18" cy="282.9453" fill="#000000" rx="3" ry="3" style="stroke:#000000;stroke-width:1.0;"/><text fill="#000000" font-family="sans-serif" font-size="14" lengthAdjust="spacing" textLength="166" x="27" y="286.292">name_td: String [PK, FK]</text><line style="stroke:#181818;stroke-width:0.5;" x1="8" x2="198" y1="293.5938" y2="293.5938"/></g><!--MD5=[62e14f1626fea46ac8925deb985a75be]
link user to user_link_td--><g id="link_user_user_link_td"><path codeLine="92" d="M103,144.46 C103,167.32 103,192.02 103,212.73 " fill="none" id="user-user_link_td" style="stroke:#181818;stroke-width:1.0;"/><line style="stroke:#181818;stroke-width:1.0;" x1="103" x2="109" y1="212.75" y2="220.75"/><line style="stroke:#181818;stroke-width:1.0;" x1="103" x2="97" y1="212.75" y2="220.75"/><line style="stroke:#181818;stroke-width:1.0;" x1="103" x2="103" y1="212.75" y2="220.75"/><line style="stroke:#181818;stroke-width:1.0;" x1="107" x2="99" y1="210.75" y2="210.75"/><line style="stroke:#181818;stroke-width:1.0;" x1="99" x2="107" y1="140.15" y2="140.15"/><line style="stroke:#181818;stroke-width:1.0;" x1="99" x2="107" y1="143.15" y2="143.15"/><line style="stroke:#181818;stroke-width:1.0;" x1="103" x2="103" y1="144.15" y2="136.15"/><text fill="#000000" font-family="sans-serif" font-size="13" lengthAdjust="spacing" textLength="23" x="104" y="179.0669">has</text></g><!--MD5=[d2d7c27e16e12300b69834612c8c500f]
link user_link_td to td_group--><g id="link_user_link_td_td_group"><path codeLine="93" d="M130.9,309 C140.13,324.31 150.47,341.4 160,357 C166.25,367.23 173.06,378.28 179.38,388.49 " fill="none" id="user_link_td-td_group" style="stroke:#181818;stroke-width:1.0;"/><line style="stroke:#181818;stroke-width:1.0;" x1="184.9529" x2="178.1529" y1="389.9029" y2="394.1171"/><line style="stroke:#181818;stroke-width:1.0;" x1="183.3725" x2="176.5725" y1="387.3529" y2="391.5671"/><line style="stroke:#181818;stroke-width:1.0;" x1="179.4457" x2="183.66" y1="388.61" y2="395.41"/><line style="stroke:#181818;stroke-width:1.0;" x1="130.8765" x2="121.6098" y1="308.9536" y2="305.1948"/><line style="stroke:#181818;stroke-width:1.0;" x1="130.8765" x2="131.8902" y1="308.9536" y2="299.0052"/><line style="stroke:#181818;stroke-width:1.0;" x1="130.8765" x2="126.75" y1="308.9536" y2="302.1"/><line style="stroke:#181818;stroke-width:1.0;" x1="128.4813" x2="135.3349" y1="312.7303" y2="308.6038"/><text fill="#000000" font-family="sans-serif" font-size="13" lengthAdjust="spacing" textLength="67" x="161" y="353.0669">belongs to</text></g><!--MD5=[afb07e3f8f9fa0125222516d3fd0e9c8]
link association to insa_evenement--><g id="link_association_insa_evenement"><path codeLine="95" d="M1470.4,138.05 C1433.49,161.18 1392.54,186.84 1357.7,208.68 " fill="none" id="association-insa_evenement" style="stroke:#181818;stroke-width:1.0;"/><line style="stroke:#181818;stroke-width:1.0;" x1="1357.5868" x2="1353.9986" y1="208.7385" y2="218.0726"/><line style="stroke:#181818;stroke-width:1.0;" x1="1357.5868" x2="1347.6214" y1="208.7385" y2="207.9074"/><line style="stroke:#181818;stroke-width:1.0;" x1="1357.5868" x2="1350.81" y1="208.7385" y2="212.99"/><line style="stroke:#181818;stroke-width:1.0;" x1="1361.4067" x2="1357.1552" y1="211.064" y2="204.2872"/><line style="stroke:#181818;stroke-width:1.0;" x1="1471.6678" x2="1475.909" y1="132.529" y2="139.3122"/><line style="stroke:#181818;stroke-width:1.0;" x1="1469.1241" x2="1473.3654" y1="134.1195" y2="140.9027"/><line style="stroke:#181818;stroke-width:1.0;" x1="1470.3968" x2="1477.18" y1="138.0413" y2="133.8"/><text fill="#000000" font-family="sans-serif" font-size="13" lengthAdjust="spacing" textLength="32" x="1426" y="179.0669">owns</text></g><!--MD5=[4555a1c16b97ff9645133eea7703bbc8]
link association to enum_type--><g id="link_association_enum_type"><path codeLine="96" d="M1540.96,143.6 C1528.23,170.2 1514.25,199.41 1503.44,221.97 " fill="none" id="association-enum_type" style="stroke:#181818;stroke-width:1.0;"/><line style="stroke:#181818;stroke-width:1.0;" x1="1503.3672" x2="1505.3208" y1="222.1456" y2="231.9529"/><line style="stroke:#181818;stroke-width:1.0;" x1="1503.3672" x2="1494.4992" y1="222.1456" y2="226.7671"/><line style="stroke:#181818;stroke-width:1.0;" x1="1503.3672" x2="1499.91" y1="222.1456" y2="229.36"/><line style="stroke:#181818;stroke-width:1.0;" x1="1507.8387" x2="1500.6243" y1="222.0706" y2="218.6134"/><line style="stroke:#181818;stroke-width:1.0;" x1="1539.1942" x2="1546.4086" y1="138.0286" y2="141.4858"/><line style="stroke:#181818;stroke-width:1.0;" x1="1537.8977" x2="1545.1122" y1="140.734" y2="144.1912"/><line style="stroke:#181818;stroke-width:1.0;" x1="1541.0728" x2="1544.53" y1="143.3644" y2="136.15"/><text fill="#000000" font-family="sans-serif" font-size="13" lengthAdjust="spacing" textLength="23" x="1531" y="179.0669">has</text></g><!--MD5=[ec9939cf7fa85a8ec021ca8eb6c1c08a]
link association to enum_sector--><g id="link_association_enum_sector"><path codeLine="97" d="M1609.41,143.6 C1622.29,170.2 1636.43,199.41 1647.35,221.97 " fill="none" id="association-enum_sector" style="stroke:#181818;stroke-width:1.0;"/><line style="stroke:#181818;stroke-width:1.0;" x1="1647.444" x2="1656.3304" y1="222.1594" y2="226.7455"/><line style="stroke:#181818;stroke-width:1.0;" x1="1647.444" x2="1645.5296" y1="222.1594" y2="231.9745"/><line style="stroke:#181818;stroke-width:1.0;" x1="1647.444" x2="1650.93" y1="222.1594" y2="229.36"/><line style="stroke:#181818;stroke-width:1.0;" x1="1650.1728" x2="1642.9722" y1="218.6163" y2="222.1023"/><line style="stroke:#181818;stroke-width:1.0;" x1="1603.9527" x2="1611.1533" y1="141.4933" y2="138.0073"/><line style="stroke:#181818;stroke-width:1.0;" x1="1605.26" x2="1612.4605" y1="144.1935" y2="140.7075"/><line style="stroke:#181818;stroke-width:1.0;" x1="1609.296" x2="1605.81" y1="143.3506" y2="136.15"/><text fill="#000000" font-family="sans-serif" font-size="13" lengthAdjust="spacing" textLength="67" x="1627" y="179.0669">belongs to</text></g><!--MD5=[89cf3a05630f8701b916ded28da23672]
link association to enum_color--><g id="link_association_enum_color"><path codeLine="98" d="M1679.38,137.27 C1721.53,163.42 1769.09,192.92 1807.09,216.51 " fill="none" id="association-enum_color" style="stroke:#181818;stroke-width:1.0;"/><line style="stroke:#181818;stroke-width:1.0;" x1="1807.2864" x2="1817.2484" y1="216.6154" y2="215.7448"/><line style="stroke:#181818;stroke-width:1.0;" x1="1807.2864" x2="1810.9116" y1="216.6154" y2="225.9352"/><line style="stroke:#181818;stroke-width:1.0;" x1="1807.2864" x2="1814.08" y1="216.6154" y2="220.84"/><line style="stroke:#181818;stroke-width:1.0;" x1="1807.7003" x2="1803.4757" y1="212.1625" y2="218.9561"/><line style="stroke:#181818;stroke-width:1.0;" x1="1673.8329" x2="1678.0471" y1="138.5271" y2="131.7271"/><line style="stroke:#181818;stroke-width:1.0;" x1="1676.3829" x2="1680.5971" y1="140.1075" y2="133.3075"/><line style="stroke:#181818;stroke-width:1.0;" x1="1679.34" x2="1672.54" y1="137.2343" y2="133.02"/><text fill="#000000" font-family="sans-serif" font-size="13" lengthAdjust="spacing" textLength="30" x="1746" y="179.0669">uses</text></g><!--MD5=[51cc763165cac479866be7a4559b07ab]
link insa_class to class_link_td--><g id="link_insa_class_class_link_td"><path codeLine="100" d="M641.87,107.19 C579.11,138.24 486.85,183.89 419.32,217.3 " fill="none" id="insa_class-class_link_td" style="stroke:#181818;stroke-width:1.0;"/><line style="stroke:#181818;stroke-width:1.0;" x1="419.2097" x2="414.7018" y1="217.3509" y2="226.2773"/><line style="stroke:#181818;stroke-width:1.0;" x1="419.2097" x2="409.3782" y1="217.3509" y2="215.5227"/><line style="stroke:#181818;stroke-width:1.0;" x1="419.2097" x2="412.04" y1="217.3509" y2="220.9"/><line style="stroke:#181818;stroke-width:1.0;" x1="422.7766" x2="419.2276" y1="220.0485" y2="212.8788"/><line style="stroke:#181818;stroke-width:1.0;" x1="643.8921" x2="647.4354" y1="101.7254" y2="108.8979"/><line style="stroke:#181818;stroke-width:1.0;" x1="641.2024" x2="644.7458" y1="103.0542" y2="110.2267"/><line style="stroke:#181818;stroke-width:1.0;" x1="642.0775" x2="649.25" y1="107.0834" y2="103.54"/><text fill="#000000" font-family="sans-serif" font-size="13" lengthAdjust="spacing" textLength="54" x="523" y="179.0669">linked to</text></g><!--MD5=[68f43b61cb8cb9cf026898bcb6bbccc3]
link insa_class to class_link_room--><g id="link_insa_class_class_link_room"><path codeLine="101" d="M681.94,110.17 C657.93,140.27 624.18,182.57 598.6,214.63 " fill="none" id="insa_class-class_link_room" style="stroke:#181818;stroke-width:1.0;"/><line style="stroke:#181818;stroke-width:1.0;" x1="598.5841" x2="598.2773" y1="214.6503" y2="224.6456"/><line style="stroke:#181818;stroke-width:1.0;" x1="598.5841" x2="588.9027" y1="214.6503" y2="217.1544"/><line style="stroke:#181818;stroke-width:1.0;" x1="598.5841" x2="593.59" y1="214.6503" y2="220.9"/><line style="stroke:#181818;stroke-width:1.0;" x1="602.9575" x2="596.7077" y1="215.5849" y2="210.5908"/><line style="stroke:#181818;stroke-width:1.0;" x1="681.609" x2="687.8657" y1="104.1757" y2="109.161"/><line style="stroke:#181818;stroke-width:1.0;" x1="679.7395" x2="685.9962" y1="106.5219" y2="111.5073"/><line style="stroke:#181818;stroke-width:1.0;" x1="682.2446" x2="687.23" y1="109.7967" y2="103.54"/><text fill="#000000" font-family="sans-serif" font-size="13" lengthAdjust="spacing" textLength="62" x="638" y="179.0669">located in</text></g><!--MD5=[b16e6e4619a1f39f5f1de7439470302f]
link insa_class to class_link_teacher--><g id="link_insa_class_class_link_teacher"><path codeLine="102" d="M729.4,110.98 C742.82,140.66 761.44,181.86 775.75,213.49 " fill="none" id="insa_class-class_link_teacher" style="stroke:#181818;stroke-width:1.0;"/><line style="stroke:#181818;stroke-width:1.0;" x1="775.7993" x2="784.5655" y1="213.6127" y2="218.4245"/><line style="stroke:#181818;stroke-width:1.0;" x1="775.7993" x2="773.6345" y1="213.6127" y2="223.3755"/><line style="stroke:#181818;stroke-width:1.0;" x1="775.7993" x2="779.1" y1="213.6127" y2="220.9"/><line style="stroke:#181818;stroke-width:1.0;" x1="778.6178" x2="771.3304" y1="210.1405" y2="213.4412"/><line style="stroke:#181818;stroke-width:1.0;" x1="724.0467" x2="731.334" y1="108.834" y2="105.5333"/><line style="stroke:#181818;stroke-width:1.0;" x1="725.2845" x2="732.5718" y1="111.5668" y2="108.266"/><line style="stroke:#181818;stroke-width:1.0;" x1="729.3407" x2="726.04" y1="110.8273" y2="103.54"/><text fill="#000000" font-family="sans-serif" font-size="13" lengthAdjust="spacing" textLength="61" x="761" y="179.0669">taught by</text></g><!--MD5=[53dca5725276c5125dd3844346f78c7a]
link insa_class to class_link_depart--><g id="link_insa_class_class_link_depart"><path codeLine="103" d="M772.06,107.78 C824.58,138.64 901.06,183.57 957.48,216.72 " fill="none" id="insa_class-class_link_depart" style="stroke:#181818;stroke-width:1.0;"/><line style="stroke:#181818;stroke-width:1.0;" x1="957.7075" x2="967.6459" y1="216.8388" y2="215.7306"/><line style="stroke:#181818;stroke-width:1.0;" x1="957.7075" x2="961.5541" y1="216.8388" y2="226.0694"/><line style="stroke:#181818;stroke-width:1.0;" x1="957.7075" x2="964.6" y1="216.8388" y2="220.9"/><line style="stroke:#181818;stroke-width:1.0;" x1="958.0149" x2="953.9538" y1="212.3773" y2="219.2698"/><line style="stroke:#181818;stroke-width:1.0;" x1="766.2606" x2="770.3156" y1="109.0156" y2="102.1194"/><line style="stroke:#181818;stroke-width:1.0;" x1="768.8467" x2="772.9016" y1="110.5362" y2="103.6399"/><line style="stroke:#181818;stroke-width:1.0;" x1="771.7362" x2="764.84" y1="107.5949" y2="103.54"/><text fill="#000000" font-family="sans-serif" font-size="13" lengthAdjust="spacing" textLength="67" x="893" y="179.0669">belongs to</text></g><!--MD5=[f2e118353ec87880cdb030a0b88b8905]
link insa_evenement to evenement_link_evenement_room--><g id="link_insa_evenement_evenement_link_evenement_room"><path codeLine="105" d="M1275,318.51 C1275,338.08 1275,359.86 1275,378.7 " fill="none" id="insa_evenement-evenement_link_evenement_room" style="stroke:#181818;stroke-width:1.0;"/><line style="stroke:#181818;stroke-width:1.0;" x1="1275" x2="1281" y1="378.86" y2="386.86"/><line style="stroke:#181818;stroke-width:1.0;" x1="1275" x2="1269" y1="378.86" y2="386.86"/><line style="stroke:#181818;stroke-width:1.0;" x1="1275" x2="1275" y1="378.86" y2="386.86"/><line style="stroke:#181818;stroke-width:1.0;" x1="1279" x2="1271" y1="376.86" y2="376.86"/><line style="stroke:#181818;stroke-width:1.0;" x1="1271" x2="1279" y1="314.38" y2="314.38"/><line style="stroke:#181818;stroke-width:1.0;" x1="1271" x2="1279" y1="317.38" y2="317.38"/><line style="stroke:#181818;stroke-width:1.0;" x1="1275" x2="1275" y1="318.38" y2="310.38"/><text fill="#000000" font-family="sans-serif" font-size="13" lengthAdjust="spacing" textLength="70" x="1276" y="353.0669">happens in</text></g><!--MD5=[990af9461b8e293151390dfc5caa4d65]
link evenement_link_evenement_room to evenement_room--><g id="link_evenement_link_evenement_room_evenement_room"><path codeLine="106" d="M1275,476.13 C1275,495.64 1275,517.95 1275,536.53 " fill="none" id="evenement_link_evenement_room-evenement_room" style="stroke:#181818;stroke-width:1.0;"/><line style="stroke:#181818;stroke-width:1.0;" x1="1279" x2="1271" y1="540.78" y2="540.78"/><line style="stroke:#181818;stroke-width:1.0;" x1="1279" x2="1271" y1="537.78" y2="537.78"/><line style="stroke:#181818;stroke-width:1.0;" x1="1275" x2="1275" y1="536.78" y2="544.78"/><line style="stroke:#181818;stroke-width:1.0;" x1="1275" x2="1269" y1="476.03" y2="468.03"/><line style="stroke:#181818;stroke-width:1.0;" x1="1275" x2="1281" y1="476.03" y2="468.03"/><line style="stroke:#181818;stroke-width:1.0;" x1="1275" x2="1275" y1="476.03" y2="468.03"/><line style="stroke:#181818;stroke-width:1.0;" x1="1271" x2="1279" y1="478.03" y2="478.03"/><text fill="#000000" font-family="sans-serif" font-size="13" lengthAdjust="spacing" textLength="57" x="1276" y="511.0669">occurs in</text></g><!--MD5=[fddf7530ec5dca10a9cffcc08d43fcd1]
link class_link_td to td_group--><g id="link_class_link_td_td_group"><path codeLine="108" d="M295.64,308.72 C275.73,334.04 251.36,365.02 232.62,388.85 " fill="none" id="class_link_td-td_group" style="stroke:#181818;stroke-width:1.0;"/><line style="stroke:#181818;stroke-width:1.0;" x1="233.1068" x2="226.8183" y1="394.6983" y2="389.7532"/><line style="stroke:#181818;stroke-width:1.0;" x1="234.9612" x2="228.6727" y1="392.3401" y2="387.395"/><line style="stroke:#181818;stroke-width:1.0;" x1="232.4351" x2="227.49" y1="389.0814" y2="395.37"/><line style="stroke:#181818;stroke-width:1.0;" x1="295.8249" x2="296.0536" y1="308.4886" y2="298.4912"/><line style="stroke:#181818;stroke-width:1.0;" x1="295.8249" x2="305.4864" y1="308.4886" y2="305.9088"/><line style="stroke:#181818;stroke-width:1.0;" x1="295.8249" x2="300.77" y1="308.4886" y2="302.2"/><line style="stroke:#181818;stroke-width:1.0;" x1="291.4443" x2="297.7329" y1="307.5882" y2="312.5333"/><text fill="#000000" font-family="sans-serif" font-size="13" lengthAdjust="spacing" textLength="98" x="269" y="353.0669">associated with</text></g><!--MD5=[8cd2fef4f53fa576d70c9b19b46f10f0]
link class_link_room to room--><g id="link_class_link_room_room"><path codeLine="109" d="M562,310.48 C562,334.87 562,364.15 562,387.18 " fill="none" id="class_link_room-room" style="stroke:#181818;stroke-width:1.0;"/><line style="stroke:#181818;stroke-width:1.0;" x1="566" x2="558" y1="391.37" y2="391.37"/><line style="stroke:#181818;stroke-width:1.0;" x1="566" x2="558" y1="388.37" y2="388.37"/><line style="stroke:#181818;stroke-width:1.0;" x1="562" x2="562" y1="387.37" y2="395.37"/><line style="stroke:#181818;stroke-width:1.0;" x1="562" x2="556" y1="310.2" y2="302.2"/><line style="stroke:#181818;stroke-width:1.0;" x1="562" x2="568" y1="310.2" y2="302.2"/><line style="stroke:#181818;stroke-width:1.0;" x1="562" x2="562" y1="310.2" y2="302.2"/><line style="stroke:#181818;stroke-width:1.0;" x1="558" x2="566" y1="312.2" y2="312.2"/><text fill="#000000" font-family="sans-serif" font-size="13" lengthAdjust="spacing" textLength="74" x="563" y="353.0669">assigned to</text></g><!--MD5=[9fed15ed3736aa67cf1ffde133a9eeea]
link class_link_teacher to teacher--><g id="link_class_link_teacher_teacher"><path codeLine="110" d="M797,310.48 C797,334.87 797,364.15 797,387.18 " fill="none" id="class_link_teacher-teacher" style="stroke:#181818;stroke-width:1.0;"/><line style="stroke:#181818;stroke-width:1.0;" x1="801" x2="793" y1="391.37" y2="391.37"/><line style="stroke:#181818;stroke-width:1.0;" x1="801" x2="793" y1="388.37" y2="388.37"/><line style="stroke:#181818;stroke-width:1.0;" x1="797" x2="797" y1="387.37" y2="395.37"/><line style="stroke:#181818;stroke-width:1.0;" x1="797" x2="791" y1="310.2" y2="302.2"/><line style="stroke:#181818;stroke-width:1.0;" x1="797" x2="803" y1="310.2" y2="302.2"/><line style="stroke:#181818;stroke-width:1.0;" x1="797" x2="797" y1="310.2" y2="302.2"/><line style="stroke:#181818;stroke-width:1.0;" x1="793" x2="801" y1="312.2" y2="312.2"/><text fill="#000000" font-family="sans-serif" font-size="13" lengthAdjust="spacing" textLength="83" x="798" y="353.0669">instructed by</text></g><!--MD5=[121c10da2e4991ad597af4651511fad6]
link class_link_depart to department--><g id="link_class_link_depart_department"><path codeLine="111" d="M1032,310.48 C1032,334.87 1032,364.15 1032,387.18 " fill="none" id="class_link_depart-department" style="stroke:#181818;stroke-width:1.0;"/><line style="stroke:#181818;stroke-width:1.0;" x1="1036" x2="1028" y1="391.37" y2="391.37"/><line style="stroke:#181818;stroke-width:1.0;" x1="1036" x2="1028" y1="388.37" y2="388.37"/><line style="stroke:#181818;stroke-width:1.0;" x1="1032" x2="1032" y1="387.37" y2="395.37"/><line style="stroke:#181818;stroke-width:1.0;" x1="1032" x2="1026" y1="310.2" y2="302.2"/><line style="stroke:#181818;stroke-width:1.0;" x1="1032" x2="1038" y1="310.2" y2="302.2"/><line style="stroke:#181818;stroke-width:1.0;" x1="1032" x2="1032" y1="310.2" y2="302.2"/><line style="stroke:#181818;stroke-width:1.0;" x1="1028" x2="1036" y1="312.2" y2="312.2"/><text fill="#000000" font-family="sans-serif" font-size="13" lengthAdjust="spacing" textLength="54" x="1033" y="353.0669">linked to</text></g><!--MD5=[684ca4b2e55a477a430cfe5eefe4c621]
@startuml
entity user {
    *id: String [PK]
    - -
    email: String [UNIQUE]
    password: String
    name: String
    admin: Boolean
}

entity insa_class {
    *id: Integer [PK]
}

entity insa_evenement {
    *id: Integer [PK]
    associated_link: String
    association_id: String [FK]
}

entity association {
    *name: String [PK]
    user_email: String [FK]
    unique_color: String [FK]
    type: String [FK]
    sector: String [FK]
}

entity enum_type {
    *name: String [PK]
}

entity enum_sector {
    *name: String [PK]
}

entity enum_color {
    *value: String [PK]
    user_friendly_name: String
}

entity td_group {
    *name: String [PK]
}

entity department {
    *name: String [PK]
}

entity teacher {
    *name: String [PK]
}

entity room {
    *name: String [PK]
}

entity evenement_room {
    *name: String [PK]
}

entity evenement_link_evenement_room {
    *evenement_id: Integer [PK, FK]
    *room_id: String [PK, FK]
}

entity class_link_td {
    *class_id: Integer [PK, FK]
    *td_id: String [PK, FK]
}

entity class_link_room {
    *class_id: Integer [PK, FK]
    *room_id: String [PK, FK]
}

entity class_link_teacher {
    *class_id: Integer [PK, FK]
    *teacher_id: String [PK, FK]
}

entity class_link_depart {
    *class_id: Integer [PK, FK]
    *depart_id: String [PK, FK]
}

entity user_link_td {
    *user_id: String [PK, FK]
    *name_td: String [PK, FK]
}

' Relationships
user ||- -|{ user_link_td : has
user_link_td }|- -|| td_group : belongs to

association ||- -|{ insa_evenement : owns
association ||- -|{ enum_type : has
association ||- -|{ enum_sector : belongs to
association ||- -|{ enum_color : uses

insa_class ||- -|{ class_link_td : linked to
insa_class ||- -|{ class_link_room : located in
insa_class ||- -|{ class_link_teacher : taught by
insa_class ||- -|{ class_link_depart : belongs to

insa_evenement ||- -|{ evenement_link_evenement_room : happens in
evenement_link_evenement_room }|- -|| evenement_room : occurs in

class_link_td }|- -|| td_group : associated with
class_link_room }|- -|| room : assigned to
class_link_teacher }|- -|| teacher : instructed by
class_link_depart }|- -|| department : linked to
@enduml

@startuml
entity user {
    *id: String [PK]
    - -
    email: String [UNIQUE]
    password: String
    name: String
    admin: Boolean
}

entity insa_class {
    *id: Integer [PK]
}

entity insa_evenement {
    *id: Integer [PK]
    associated_link: String
    association_id: String [FK]
}

entity association {
    *name: String [PK]
    user_email: String [FK]
    unique_color: String [FK]
    type: String [FK]
    sector: String [FK]
}

entity enum_type {
    *name: String [PK]
}

entity enum_sector {
    *name: String [PK]
}

entity enum_color {
    *value: String [PK]
    user_friendly_name: String
}

entity td_group {
    *name: String [PK]
}

entity department {
    *name: String [PK]
}

entity teacher {
    *name: String [PK]
}

entity room {
    *name: String [PK]
}

entity evenement_room {
    *name: String [PK]
}

entity evenement_link_evenement_room {
    *evenement_id: Integer [PK, FK]
    *room_id: String [PK, FK]
}

entity class_link_td {
    *class_id: Integer [PK, FK]
    *td_id: String [PK, FK]
}

entity class_link_room {
    *class_id: Integer [PK, FK]
    *room_id: String [PK, FK]
}

entity class_link_teacher {
    *class_id: Integer [PK, FK]
    *teacher_id: String [PK, FK]
}

entity class_link_depart {
    *class_id: Integer [PK, FK]
    *depart_id: String [PK, FK]
}

entity user_link_td {
    *user_id: String [PK, FK]
    *name_td: String [PK, FK]
}

user ||- -|{ user_link_td : has
user_link_td }|- -|| td_group : belongs to

association ||- -|{ insa_evenement : owns
association ||- -|{ enum_type : has
association ||- -|{ enum_sector : belongs to
association ||- -|{ enum_color : uses

insa_class ||- -|{ class_link_td : linked to
insa_class ||- -|{ class_link_room : located in
insa_class ||- -|{ class_link_teacher : taught by
insa_class ||- -|{ class_link_depart : belongs to

insa_evenement ||- -|{ evenement_link_evenement_room : happens in
evenement_link_evenement_room }|- -|| evenement_room : occurs in

class_link_td }|- -|| td_group : associated with
class_link_room }|- -|| room : assigned to
class_link_teacher }|- -|| teacher : instructed by
class_link_depart }|- -|| department : linked to
@enduml

PlantUML version 1.2022.7(Mon Aug 22 17:01:30 UTC 2022)
(GPL source distribution)
Java Runtime: OpenJDK Runtime Environment
JVM: OpenJDK 64-Bit Server VM
Default Encoding: UTF-8
Language: en
Country: null
--></g></svg>